<svg width="705" height="223" viewBox="0 0 705 223" fill="none" xmlns="http://www.w3.org/2000/svg">
<path d="M0 0H705V223H0V0Z" fill="#80C5E6"/>
<g clip-path="url(#clip0)">
<g opacity="0.2">
<path d="M552.865 72.0582C546.082 68.5523 537.739 71.2119 534.233 77.996L518.141 109.14L502.651 78.1601C500.31 73.4751 495.521 70.5159 490.283 70.5159C485.045 70.5159 480.257 73.4751 477.915 78.1601L462.627 108.736L447.339 78.1601C444.861 73.2013 439.67 70.208 434.124 70.5417L433.287 70.5933C427.126 70.9713 422.159 75.3299 420.726 81.0133C419.784 77.2262 417.262 73.8568 413.498 71.9752C406.67 68.5615 398.362 71.3281 394.947 78.1592L379.658 108.736L364.371 78.1601C362.027 73.4751 357.24 70.5159 352.002 70.5159C346.764 70.5159 341.977 73.4751 339.633 78.1601L324.346 108.736L309.058 78.1601C305.643 71.3299 297.336 68.5606 290.506 71.9761C286.742 73.8577 284.22 77.2271 283.278 81.0133C281.846 75.3299 276.878 70.9704 270.717 70.5924L269.88 70.5408C264.345 70.1997 259.144 73.2004 256.665 78.1592L241.377 108.736L226.09 78.1601C221.055 68.1163 206.497 67.871 201.353 78.1601L185.863 109.141L169.771 77.9978C166.266 71.2128 157.924 68.5551 151.139 72.06C144.354 75.5659 141.696 83.908 145.201 90.693L173.78 146.005C178.967 156.047 193.374 155.96 198.433 145.842L213.721 115.265L229.009 145.84C234.102 156.024 248.665 156.001 253.746 145.84L279.511 94.3076C281.324 92.5459 282.656 90.2846 283.288 87.7301C283.529 88.6787 283.866 89.6162 284.322 90.528L311.978 145.84C317.07 156.024 331.634 156.001 336.715 145.84L352.002 115.265L367.289 145.84C372.382 156.024 386.947 156.002 392.026 145.84L419.682 90.527C420.138 89.6162 420.475 88.6787 420.716 87.7301C421.348 90.2855 422.68 92.5478 424.494 94.3095L450.259 145.84C455.35 156.024 469.916 156.001 474.995 145.84L490.283 115.265L505.572 145.84C510.624 155.949 525.032 156.053 530.224 146.004L558.803 90.6902C562.308 83.9052 559.65 75.5632 552.865 72.0582Z" fill="white"/>
<path d="M570.514 22.8814C535.372 -62.888 450.288 -124 352 -124C253.688 -124 168.619 -62.8668 133.487 22.8805C122.915 30.4067 116 42.7506 116 56.6875V167.312C116 181.249 122.915 193.593 133.487 201.12C168.627 286.886 253.711 348 352 348C450.312 348 535.38 286.867 570.514 201.119C581.085 193.592 588 181.248 588 167.312V56.6875C588 42.7515 581.085 30.4076 570.514 22.8814ZM536.417 15.2031H465.721C456.932 -22.4509 443.215 -54.8704 425.763 -79.066C424.543 -80.7558 423.309 -82.3949 422.062 -83.9934C470.56 -66.4381 511.876 -31.1792 536.417 15.2031ZM365.828 -94.028C403.666 -81.3236 427.327 -24.0411 437.261 15.2031H365.828V-94.028ZM338.172 -94.028V15.2031H266.739C274.681 -16.1766 286.28 -42.9423 300.667 -62.8871C309.311 -74.8696 322.167 -88.6544 338.172 -94.028ZM281.938 -83.9934C280.691 -82.3949 279.457 -80.7567 278.237 -79.066C260.785 -54.8704 247.067 -22.4509 238.279 15.2031H167.584C192.124 -31.1792 233.439 -66.4381 281.938 -83.9934ZM167.584 208.797H238.279C246.327 243.28 260.153 280.072 281.938 307.993C233.439 290.438 192.124 255.179 167.584 208.797ZM338.172 318.028C300.334 305.324 276.672 248.041 266.739 208.797H338.172V318.028ZM365.828 318.028V208.612H437.261C427.313 247.915 403.586 305.35 365.828 318.028ZM422.062 307.993C443.845 280.075 457.672 243.103 465.721 208.612H536.417C511.876 254.995 470.561 290.438 422.062 307.993ZM560.344 167.312C560.344 174.937 554.14 181.141 546.516 181.141C537.742 181.141 167.514 181.141 157.484 181.141C149.86 181.141 143.656 174.937 143.656 167.312V56.6875C143.656 49.0627 149.86 42.8594 157.484 42.8594C168.026 42.8594 537.05 42.8594 546.516 42.8594C554.14 42.8594 560.344 49.0627 560.344 56.6875V167.312Z" fill="white"/>
</g>
</g>
<defs>
<clipPath id="clip0">
<rect width="705" height="223" fill="white"/>
</clipPath>
</defs>
</svg>
