<svg width="705" height="223" viewBox="0 0 705 223" fill="none" xmlns="http://www.w3.org/2000/svg">
<path d="M0 0H705V223H0V0Z" fill="#21759B"/>
<g clip-path="url(#clip0)">
<g opacity="0.3">
<path d="M261.072 30.0451H235.835L304.638 224.535L343.157 114.464L313.293 30.0451H286.666V11.5129H404.58V30.0451H376.967L445.769 224.535L470.501 153.859C502.944 63.309 443.911 35.1024 443.911 14.8939C443.911 -5.3145 460.293 -21.6958 480.5 -21.6958C481.594 -21.6958 482.655 -21.6366 483.695 -21.5396C449.456 -53.8623 403.287 -73.6838 352.484 -73.6838C286.102 -73.6838 227.63 -39.8473 193.353 11.5129H261.07V30.0451H261.072Z" fill="white"/>
<path d="M161.298 117.502C161.298 190.7 202.44 254.28 262.854 286.407L176.573 42.5107C166.744 65.5367 161.298 90.883 161.298 117.502Z" fill="white"/>
<path d="M518.923 23.2883C521.657 39.391 520.829 57.4893 516.633 75.6581H517.393L514.502 83.9187C512.789 89.8835 510.632 95.985 508.182 101.98L442.396 286.283C502.683 254.116 543.72 190.605 543.72 117.5C543.72 83.244 534.702 51.0969 518.923 23.2883Z" fill="white"/>
<path d="M293.5 299.414C312.074 305.43 331.887 308.694 352.466 308.694C372.094 308.694 391.03 305.732 408.855 300.236L352.93 142.148L293.5 299.414Z" fill="white"/>
<path d="M514.073 -44.0741C470.916 -87.2319 413.534 -111 352.499 -111C291.464 -111 234.083 -87.2319 190.926 -44.0741C147.768 -0.916278 124 56.4648 124 117.501C124 178.535 147.768 235.916 190.926 279.074C234.083 322.232 291.465 346 352.5 346C413.535 346 470.916 322.232 514.074 279.074C557.232 235.916 581 178.534 581 117.501C580.999 56.4648 557.231 -0.916278 514.073 -44.0741ZM352.499 329.881C235.392 329.881 140.119 234.608 140.119 117.501C140.119 0.393458 235.392 -94.881 352.499 -94.881C469.606 -94.881 564.879 0.393458 564.879 117.501C564.879 234.608 469.607 329.881 352.499 329.881Z" fill="white"/>
</g>
</g>
<defs>
<clipPath id="clip0">
<rect width="705" height="223" fill="white"/>
</clipPath>
</defs>
</svg>
