<svg width="705" height="223" viewBox="0 0 705 223" fill="none" xmlns="http://www.w3.org/2000/svg">
<path d="M0 0H705V223H0V0Z" fill="#293F6E"/>
<g clip-path="url(#clip0)">
<g opacity="0.4">
<path d="M239.402 105.58L235.176 120.599L239.402 105.586V105.58ZM261.143 138.177L256.487 138.149L261.143 138.177ZM259.997 160.601L232.094 160.705L259.997 160.601ZM265.839 138.212L261.177 138.183L265.839 138.212ZM262.506 158.695L267.374 140.112L262.506 158.695ZM365.196 73.1152L356.147 115.788L365.196 73.1152ZM341.915 73.1152L335.042 104.995L341.915 73.1152Z" fill="white"/>
<path d="M363.59 71.1884H344.232C343.155 71.1884 342.09 72.0495 341.861 73.1058L328.115 136.871C327.886 137.921 326.821 138.782 325.75 138.782H312.045C298.482 138.782 300.052 129.384 302.881 116.507L302.967 116.117L304.611 107.333L305.321 103.717L311.575 73.1058C311.793 72.0495 311.088 71.1826 310.011 71.1826H290.138C289.59 71.2015 289.063 71.3989 288.637 71.7449C288.211 72.0909 287.91 72.5667 287.778 73.1001L278.826 115.663C273.901 138.191 275.207 159.674 301.965 160.345L302.738 160.362H344.73C345.807 160.362 346.866 159.501 347.095 158.445L365.205 73.1001C365.434 72.0438 364.73 71.1826 363.659 71.1826L363.59 71.1884ZM440.834 139.006C441.91 139.006 442.552 139.867 442.397 140.924L440.519 150.138L440.834 139.006ZM438.64 159.358L440.519 150.138L438.64 159.358ZM436.28 161.298L400.6 161.47L436.28 161.298Z" fill="white"/>
<path d="M389.032 127.147C389.015 126.137 390.16 124.403 391.237 124.403L388.82 124.363C387.675 135.351 389.032 127.147 389.032 127.147ZM402.354 161.467H401.981H402.354ZM440.824 139.008C441.9 139.008 442.542 139.869 442.387 140.925L440.199 151.638L440.824 139.008ZM411.517 161.495H411.437H411.517ZM406.764 161.461H406.489H406.764ZM405.315 161.467H404.856H405.315ZM403.9 161.467H403.499H403.9ZM406.546 161.461H405.372H406.546Z" fill="white"/>
<path d="M411.44 161.496L406.767 161.514L411.44 161.496ZM436.279 161.353L411.509 161.502L436.279 161.353ZM438.57 159.361L440.145 151.645L438.57 159.366V159.361ZM404.802 161.468H403.897H404.917H404.802ZM401.967 161.468H400.593H401.967ZM403.439 161.468H402.294H403.439ZM120.168 127.378L123.175 114.013L119.739 129.284L119.338 131.201L120.174 127.366L120.168 127.378ZM156.17 70.973H134.905C134.355 70.9946 133.827 71.1918 133.397 71.5358C132.968 71.8797 132.659 72.3524 132.516 72.8848L128.484 90.6817C128.417 90.9121 128.405 91.1554 128.451 91.3911C128.497 91.6268 128.6 91.8478 128.749 92.0355C128.899 92.2231 129.091 92.3718 129.31 92.469C129.529 92.5661 129.769 92.6088 130.008 92.5934H151.439C152.516 92.5934 153.581 91.7323 153.81 90.6817L157.705 72.8446C157.934 71.794 157.247 70.9329 156.158 70.9329L156.17 70.973ZM151.542 100.642L145.242 129.565L151.542 100.642ZM89.7679 196.487L107.305 196.625C102.127 196.625 93.5766 196.528 89.7622 196.482L89.7679 196.487Z" fill="white"/>
<path d="M126.134 100.639L123.122 114.004L126.134 100.639ZM150.017 98.7271H128.58C128.03 98.7487 127.502 98.9459 127.072 99.2899C126.643 99.6338 126.334 100.107 126.191 100.639L120.178 127.369L119.342 131.204L113.614 158.49C113.331 159.763 112.987 161.022 112.583 162.262C112.583 162.262 108.574 174.203 101.85 174.071L95.1782 173.945C94.6309 173.96 94.1028 174.15 93.6703 174.487C93.2378 174.823 92.9234 175.289 92.7727 175.816L88.3341 194.549C88.264 194.778 88.2499 195.021 88.293 195.256C88.336 195.492 88.4351 195.714 88.5817 195.903C88.7283 196.092 88.9181 196.243 89.1352 196.343C89.3523 196.443 89.5902 196.49 89.8289 196.478L107.372 196.622C124.187 196.622 133.047 187.281 138.734 160.414L151.62 100.708C151.85 99.6572 151.151 98.796 150.074 98.796L150.017 98.7271ZM454.49 160.373C453.413 160.373 452.772 159.512 452.944 158.456L469.066 82.7559L454.49 160.373ZM476.895 158.45L483.424 126.14L476.895 158.45Z" fill="white"/>
<path d="M453.173 159.417C453.041 158.889 453.116 157.597 453.345 156.547L460.997 120.608L452.933 158.458C452.704 159.515 453.402 160.376 454.479 160.376H456.438C455.361 160.376 453.299 159.945 453.173 159.417ZM475.624 159.945C475.04 160.175 473.677 160.376 472.6 160.376H474.559C475.105 160.354 475.63 160.155 476.054 159.808C476.477 159.461 476.777 158.985 476.907 158.453L477.296 156.535C477.085 157.591 476.151 159.71 475.578 159.945H475.624ZM480.149 142.298L483.029 128.037L480.149 142.298ZM543.767 87.8276L544.655 91.5018C544.901 92.5524 544.22 93.4078 543.149 93.4136" fill="white"/>
<path d="M477.284 156.533L480.147 142.296L477.284 156.533ZM542.895 83.9909L543.772 87.7569L542.895 83.9909ZM483.034 128.035L483.824 124.223L486.9 109.785L483.418 126.135L483.034 128.03V128.035ZM469.329 81.5107L468.658 84.6683L461.007 120.607L469.071 82.7565L469.329 81.5165V81.5107Z" fill="white"/>
<path d="M544.673 91.5017L543.785 87.8275L542.468 82.0866C540.727 75.3123 535.618 71.3912 524.519 71.3912L473.431 71.3567C472.883 71.3756 472.357 71.573 471.931 71.919C471.505 72.2651 471.203 72.7408 471.072 73.2742L470.281 77.023L469.136 82.6893L453.42 156.478C453.191 157.534 453.117 158.774 453.248 159.348C453.38 159.922 455.442 160.307 456.513 160.307H472.664C473.741 160.307 475.098 160.112 475.688 159.876C476.278 159.641 477.143 157.58 477.406 156.466L483.534 126.074L490.092 95.2792C490.321 94.2286 491.381 93.3732 492.452 93.3675L543.27 93.3445C544.341 93.3445 545.022 92.4834 544.776 91.4328L544.673 91.5017ZM610.095 58.2444L606.184 58.2617H589.918C589.323 58.2972 588.742 58.46 588.214 58.7392C587.687 59.0185 587.225 59.4076 586.86 59.8806L550.893 112.697C550.286 113.587 549.593 113.455 549.346 112.41L546.7 100.773C546.558 100.241 546.249 99.7682 545.819 99.4243C545.39 99.0803 544.861 98.8832 544.312 98.8616H521.191C520.114 98.8616 519.473 99.7055 519.771 100.745L530.08 137.131C530.378 138.164 530.395 139.869 530.137 140.92L525.555 158.527C525.477 158.753 525.457 158.995 525.495 159.23C525.534 159.466 525.631 159.689 525.777 159.877C525.923 160.066 526.114 160.215 526.332 160.311C526.551 160.407 526.79 160.447 527.027 160.427H549.936C551.013 160.427 552.113 159.566 552.376 158.533L556.958 140.925C557.317 139.686 557.878 138.514 558.619 137.458L617.071 59.7658C617.718 58.9046 617.369 58.2042 616.292 58.2157L610.164 58.2559L610.095 58.2444ZM426.387 103.81C426.25 104.958 425.173 105.82 424.097 105.82H394.773C393.759 105.82 393.244 105.131 393.398 104.27L393.421 104.115L393.553 103.615C396.417 96.1519 402.058 91.2548 412.774 91.2548C424.841 91.2548 427.195 97.168 426.376 103.81H426.387ZM417.785 69.8928C380.157 69.8928 371.24 92.7877 366.24 115.895C361.234 139.45 361.669 161.478 400.603 161.478H406.777L411.531 161.461L436.307 161.312C436.851 161.286 437.372 161.085 437.792 160.739C438.212 160.392 438.509 159.918 438.638 159.388L442.401 140.948C442.619 139.892 441.914 139.031 440.837 139.031H405.832C391.915 139.031 387.774 135.322 389.298 124.42H445.253C446.169 124.403 447 123.846 447.326 122.974C447.384 122.819 447.441 122.652 447.464 122.486C455.768 91.0826 453.386 69.9158 417.797 69.9158L417.785 69.8928ZM239.93 103.684L239.404 105.561C239.404 105.567 235.177 120.58 235.177 120.58L230.95 135.586C230.775 136.115 230.443 136.579 229.999 136.915C229.555 137.251 229.02 137.444 228.464 137.469H206.094C189.13 137.469 185 124.168 189.13 104.551C193.253 84.4862 201.357 72.0112 218.052 70.7482C240.87 69.0259 245.429 85.112 239.93 103.678V103.684ZM255.268 136.321C255.268 136.321 265.806 110.659 268.212 95.8304C271.476 75.9839 261.568 47.2046 223.281 47.2046C185.212 47.2046 168.683 74.6807 162.378 104.614C156.078 134.697 164.336 161.082 202.182 160.875L259.947 160.663C260.501 160.636 261.033 160.439 261.471 160.098C261.909 159.757 262.231 159.288 262.393 158.757L267.261 140.168C267.34 139.943 267.361 139.701 267.324 139.466C267.286 139.23 267.19 139.008 267.045 138.818C266.9 138.629 266.711 138.479 266.493 138.382C266.276 138.285 266.038 138.243 265.801 138.262L256.482 138.204C255.566 138.198 255.05 137.607 255.154 136.826C255.176 136.683 255.211 136.539 255.268 136.39V136.321Z" fill="white"/>
<path d="M443.709 119.148C443.709 119.86 443.136 120.434 442.426 120.434C441.716 120.434 441.143 119.86 441.143 119.148C441.143 118.436 441.716 117.862 442.426 117.862C443.136 117.862 443.709 118.436 443.709 119.148Z" fill="white"/>
</g>
</g>
<defs>
<clipPath id="clip0">
<rect width="705" height="223" fill="white"/>
</clipPath>
</defs>
</svg>
