<svg width="705" height="223" viewBox="0 0 705 223" fill="none" xmlns="http://www.w3.org/2000/svg">
<path d="M0 0H705V223H0V0Z" fill="#FE2D1F"/>
<path opacity="0.4" fill-rule="evenodd" clip-rule="evenodd" d="M298.036 76.1743V135.24H319.613V145.428H286.548V76.1743H298.036ZM360.167 105.557V99.3276H371.054V145.428H360.164V139.194C358.701 141.503 356.619 143.318 353.92 144.635C351.226 145.953 348.511 146.612 345.781 146.612C342.251 146.612 339.02 145.969 336.092 144.684C333.24 143.455 330.673 141.653 328.549 139.392C326.449 137.147 324.79 134.53 323.657 131.675C322.479 128.716 321.885 125.559 321.907 122.375C321.907 119.145 322.49 116.061 323.657 113.124C324.783 110.252 326.443 107.618 328.549 105.361C330.673 103.1 333.24 101.297 336.092 100.066C339.02 98.7793 342.251 98.1358 345.781 98.1358C348.511 98.1358 351.226 98.7973 353.922 100.118C356.619 101.436 358.701 103.25 360.167 105.557ZM359.166 128.015C359.836 126.211 360.175 124.302 360.167 122.378C360.167 120.396 359.832 118.517 359.166 116.736C358.54 115.022 357.592 113.444 356.371 112.087C355.15 110.752 353.672 109.676 352.026 108.921C350.325 108.131 348.444 107.734 346.38 107.734C344.315 107.734 342.45 108.131 340.785 108.921C339.121 109.714 337.689 110.769 336.492 112.087C335.274 113.438 334.34 115.019 333.746 116.736C333.107 118.547 332.786 120.455 332.796 122.375C332.796 124.355 333.111 126.236 333.746 128.012C334.34 129.731 335.273 131.312 336.492 132.664C337.7 133.991 339.159 135.067 340.785 135.83C342.45 136.623 344.315 137.016 346.38 137.016C348.444 137.016 350.328 136.623 352.026 135.832C353.673 135.078 355.15 134.002 356.371 132.666C357.592 131.308 358.541 129.729 359.166 128.015ZM379.644 145.426V99.325H409.213V109.935H390.531V145.426H379.644ZM448.67 105.557V99.3276H459.557V145.428H448.668V139.194C447.202 141.503 445.122 143.318 442.423 144.635C439.729 145.953 437.015 146.612 434.285 146.612C430.752 146.612 427.524 145.969 424.595 144.684C421.744 143.455 419.177 141.653 417.052 139.392C414.953 137.147 413.293 134.53 412.16 131.675C410.983 128.716 410.389 125.559 410.41 122.375C410.41 119.145 410.991 116.061 412.16 113.124C413.286 110.252 414.946 107.618 417.052 105.361C419.177 103.1 421.744 101.297 424.595 100.066C427.524 98.7793 430.752 98.1358 434.285 98.1358C437.015 98.1358 439.729 98.7973 442.426 100.118C445.122 101.436 447.202 103.25 448.67 105.557ZM447.669 128.015C448.339 126.211 448.677 124.301 448.668 122.378C448.668 120.396 448.332 118.517 447.669 116.736C447.043 115.022 446.094 113.444 444.872 112.087C443.651 110.752 442.173 109.676 440.527 108.921C438.829 108.131 436.948 107.734 434.883 107.734C432.819 107.734 430.953 108.131 429.289 108.921C427.625 109.714 426.192 110.769 424.995 112.087C423.776 113.438 422.842 115.018 422.247 116.736C421.608 118.547 421.286 120.455 421.297 122.375C421.297 124.355 421.612 126.236 422.247 128.012C422.841 129.731 423.776 131.313 424.995 132.664C426.203 133.991 427.663 135.067 429.289 135.83C430.953 136.623 432.819 137.016 434.883 137.016C436.948 137.016 438.831 136.623 440.527 135.832C442.173 135.078 443.651 134.002 444.872 132.666C446.094 131.309 447.044 129.73 447.669 128.015ZM503.208 99.325H514.236L496.364 145.426H482.683L464.811 99.325H475.84L489.524 134.628L503.208 99.325ZM537.982 98.141C552.809 98.141 562.919 111.153 561.02 126.383H524.899C524.899 130.36 528.953 138.049 538.58 138.049C546.863 138.049 552.411 130.834 552.416 130.828L559.771 136.465C553.196 143.42 547.81 146.615 539.378 146.615C524.308 146.615 514.097 137.173 514.097 122.378C514.097 108.993 524.651 98.141 537.982 98.141ZM524.927 118.37H551.02C550.94 117.482 549.526 106.705 537.896 106.705C526.266 106.705 525.012 117.482 524.927 118.37ZM568.111 145.426V76.1743H579V145.426H568.111ZM253.412 75.6338C253.46 75.8083 253.484 75.9883 253.485 76.1692V104.288C253.484 104.649 253.387 105.004 253.205 105.317C253.022 105.629 252.76 105.888 252.445 106.066L228.617 119.655V146.587C228.616 146.948 228.519 147.302 228.337 147.614C228.154 147.926 227.892 148.184 227.577 148.363L177.842 176.726C177.728 176.793 177.602 176.831 177.481 176.875C177.432 176.89 177.388 176.919 177.341 176.932C176.993 177.023 176.627 177.023 176.278 176.932C176.221 176.916 176.17 176.885 176.116 176.865C176 176.826 175.883 176.787 175.775 176.726L126.037 148.368C125.722 148.189 125.46 147.93 125.278 147.617C125.096 147.304 125 146.948 125 146.587V62.2309C125 62.05 125.025 61.87 125.072 61.6955C125.088 61.6337 125.124 61.5796 125.145 61.523C125.186 61.4149 125.222 61.3042 125.279 61.2038C125.317 61.1369 125.374 61.0829 125.418 61.0236C125.48 60.9413 125.532 60.8538 125.604 60.7817C125.663 60.7225 125.741 60.6787 125.808 60.6273C125.883 60.5706 125.95 60.5037 126.035 60.4548L126.037 60.4522L150.907 46.272C151.222 46.0937 151.578 46 151.94 46C152.301 46 152.657 46.0937 152.972 46.272L177.842 60.4522H177.847C177.93 60.5037 177.997 60.5706 178.074 60.6273C178.141 60.6787 178.216 60.7225 178.275 60.7817C178.348 60.8538 178.399 60.9413 178.461 61.0211C178.508 61.0829 178.564 61.1369 178.603 61.2038C178.66 61.3042 178.696 61.4149 178.737 61.523C178.758 61.5796 178.792 61.6337 178.81 61.6955C178.856 61.8701 178.88 62.0501 178.879 62.2309V114.918L199.605 103.101V76.1692C199.605 75.9884 199.628 75.8084 199.675 75.6338C199.693 75.572 199.727 75.5205 199.75 75.4613C199.788 75.3532 199.825 75.2425 199.881 75.1421C199.92 75.0752 199.977 75.0212 200.023 74.962C200.085 74.8796 200.137 74.7921 200.209 74.7226C200.268 74.6634 200.343 74.6196 200.41 74.5681C200.488 74.5089 200.555 74.4394 200.64 74.3931V74.3905L225.51 60.2103C225.825 60.031 226.181 59.9368 226.544 59.9368C226.906 59.9368 227.262 60.031 227.577 60.2103L252.445 74.3905H252.447C252.535 74.442 252.602 74.5089 252.679 74.5656C252.744 74.617 252.821 74.6634 252.881 74.72C252.953 74.7921 253.005 74.8796 253.064 74.9594C253.11 75.0212 253.167 75.0752 253.206 75.1421C253.265 75.2425 253.299 75.3532 253.34 75.4613C253.363 75.5205 253.397 75.572 253.412 75.6338ZM249.34 103.101V79.7187L240.637 84.6814L228.617 91.536V114.918L249.338 103.101H249.34ZM224.473 145.4V122.002L212.644 128.689L178.879 147.776V171.392L224.473 145.395V145.4ZM129.144 65.7804V145.4L174.735 171.397V147.783L150.918 134.435L150.913 134.427L150.902 134.424C150.82 134.378 150.755 134.311 150.68 134.254C150.613 134.203 150.541 134.162 150.482 134.105L150.477 134.097C150.409 134.033 150.363 133.953 150.306 133.881C150.255 133.814 150.193 133.755 150.151 133.683L150.149 133.675C150.102 133.598 150.074 133.505 150.04 133.418C150.007 133.343 149.963 133.271 149.942 133.189V133.186C149.914 133.088 149.911 132.985 149.899 132.885C149.891 132.808 149.868 132.733 149.868 132.653V77.5952L137.851 70.7431L129.144 65.7804ZM151.94 50.4187L131.227 62.2334L151.94 74.043L172.655 62.2309L151.94 50.4187ZM162.715 124.133L174.735 117.281V65.7804L166.034 70.7431L154.012 77.5977V129.096L162.715 124.133ZM226.545 64.3596L205.829 76.1692L226.545 87.9813L247.258 76.1692L226.545 64.3596ZM224.473 91.536L212.451 84.6814L203.749 79.7187V103.101L215.769 109.956L224.473 114.918V91.5335V91.536ZM176.805 144.226L207.189 127.047L222.377 118.46L201.677 106.656L177.842 120.247L156.12 132.633L176.805 144.226Z" fill="white"/>
</svg>
