<svg width="705" height="223" viewBox="0 0 705 223" fill="none" xmlns="http://www.w3.org/2000/svg">
<path d="M0 0H705V223H0V0Z" fill="#008BCA"/>
<g clip-path="url(#clip0)">
<g opacity="0.2">
<path d="M303.805 84.766V82.2643C303.805 81.6388 303.495 81.0134 302.252 81.0134C301.01 80.7007 298.214 80.7007 295.729 80.7007C288.895 80.7007 284.547 83.2024 284.547 91.0203V135.113C284.547 136.051 285.168 136.677 286.1 136.677H289.517C290.449 136.677 291.07 136.051 291.07 135.113V101.027H302.563C303.495 101.027 303.805 100.402 303.805 99.7764V97.2746C303.805 96.3365 303.184 96.0238 302.563 96.0238H290.759V91.0203C290.759 86.6423 291.691 86.0169 295.729 86.0169H302.252C303.184 85.7041 303.805 85.3914 303.805 84.766Z" fill="white"/>
<path d="M327.102 99.7767V96.3368C327.102 95.3987 326.481 95.0859 325.549 95.0859C319.336 95.0859 314.366 95.3987 310.328 97.2749C309.396 97.5877 309.086 98.2131 309.086 98.8385V134.488C309.086 135.426 309.707 136.052 310.328 136.052H314.056C314.988 136.052 315.298 135.426 315.298 134.488V101.653C318.094 101.028 320.579 101.028 325.549 101.028C327.102 101.028 327.102 100.715 327.102 99.7767Z" fill="white"/>
<path d="M359.098 133.549V98.8376C359.098 97.8995 358.787 97.5867 357.545 97.274C353.507 96.3359 348.537 95.7104 343.877 95.7104C333.005 95.7104 327.725 102.903 327.725 113.848V118.851C327.725 129.796 332.695 136.989 343.877 136.989C348.226 136.989 353.507 136.363 357.545 135.425C358.787 134.8 359.098 134.487 359.098 133.549ZM352.575 130.735C350.4 131.047 346.983 131.36 343.877 131.36C336.733 131.36 334.248 126.357 334.248 118.539V113.535C334.248 105.717 336.422 100.714 343.877 100.714C346.983 100.714 350.4 101.027 352.575 101.339V130.735Z" fill="white"/>
<path d="M412.213 134.8V108.219C412.213 100.714 407.864 95.3975 399.167 95.3975H397.614C393.265 95.3975 390.159 96.0229 387.984 97.8992C385.81 95.7102 382.704 95.3975 378.355 95.3975H376.802C368.104 95.3975 363.755 100.714 363.755 108.219V134.8C363.755 135.738 364.377 136.363 364.998 136.363H368.725C369.657 136.363 369.968 135.738 369.968 134.8V108.219C369.968 101.964 372.764 101.026 376.491 101.026H378.044C382.704 101.026 384.257 101.964 384.257 106.03V134.8C384.257 135.738 384.878 136.363 385.499 136.363H389.227C390.159 136.363 390.469 135.738 390.469 134.8V106.03C390.469 101.964 392.022 101.026 396.682 101.026H398.235C402.273 101.026 404.758 101.964 404.758 108.219V134.8C404.758 135.738 405.379 136.363 406.001 136.363H409.728C411.902 136.363 412.213 135.738 412.213 134.8Z" fill="white"/>
<path d="M448.244 116.662V112.597C448.244 102.277 442.653 95.3975 432.092 95.3975C421.531 95.3975 415.629 101.964 415.629 112.597V119.164C415.629 132.923 423.705 136.989 432.402 136.989C437.373 136.989 441.411 136.676 445.449 135.738C446.691 135.425 447.002 135.112 447.002 134.174V131.673C447.002 131.047 446.381 130.734 445.759 130.734H445.449C442.032 131.36 436.751 131.673 432.402 131.673C425.569 131.673 422.152 128.545 422.152 119.789V118.226H446.691C447.623 118.226 448.244 117.6 448.244 116.662ZM441.721 113.222H422.152V112.597C422.152 104.779 425.569 101.026 432.092 101.026C438.615 101.026 441.721 104.154 441.721 112.597V113.222Z" fill="white"/>
<path d="M501.674 120.415V97.274C501.674 96.3359 501.052 95.7104 500.121 95.7104H496.704C495.772 95.7104 495.151 96.3359 495.151 97.274V120.415C495.151 128.546 492.044 131.36 486.142 131.36C484.279 131.36 482.415 131.047 480.241 130.422V97.274C480.241 96.3359 479.619 95.7104 478.687 95.7104H474.96C474.028 95.7104 473.407 96.3359 473.407 97.274V130.422C471.232 131.047 469.369 131.36 467.505 131.36C461.292 131.36 458.497 128.546 458.497 120.415V97.274C458.497 96.3359 457.876 95.7104 456.944 95.7104H453.527C452.595 95.7104 451.974 96.3359 451.974 97.274V120.415C451.974 133.549 459.118 136.989 466.884 136.989C470.611 136.989 473.717 136.363 476.513 135.113C479.619 136.363 482.415 136.989 486.142 136.989C494.529 136.989 501.674 133.549 501.674 120.415Z" fill="white"/>
<path d="M539.256 118.851V113.222C539.256 102.277 533.665 95.3975 522.793 95.3975C511.921 95.3975 506.33 102.59 506.33 113.222V118.851C506.33 129.796 511.921 136.676 522.793 136.676C533.665 136.989 539.256 129.796 539.256 118.851ZM532.733 118.851C532.733 126.356 529.626 131.047 522.793 131.047C515.959 131.047 512.853 126.356 512.853 118.851V113.222C512.853 105.717 515.959 101.026 522.793 101.026C529.626 101.026 532.733 105.717 532.733 113.222V118.851Z" fill="white"/>
<path d="M562.244 99.7767V96.3368C562.244 95.3987 561.623 95.0859 560.691 95.0859C554.479 95.0859 549.509 95.3987 545.471 97.2749C544.539 97.5877 544.228 98.2131 544.228 98.8385V134.488C544.228 135.426 544.849 136.052 545.471 136.052H549.198C550.13 136.052 550.441 135.426 550.441 134.488V101.653C553.236 101.028 555.721 101.028 560.691 101.028C562.244 101.028 562.244 100.715 562.244 99.7767Z" fill="white"/>
<path d="M595.174 135.427C595.174 135.114 595.174 134.801 594.863 134.801L578.4 115.1L594.553 97.5881C594.863 97.2754 594.863 96.9627 594.863 96.65C594.863 96.3372 594.553 95.7118 593.621 95.7118H588.961C588.34 95.7118 588.03 95.7118 587.408 96.3372L572.809 112.911V82.5777C572.809 81.6396 572.188 81.0142 571.256 81.0142H567.839C566.907 81.0142 566.286 81.6396 566.286 82.5777V135.114C566.286 136.052 566.907 136.678 567.839 136.678H571.256C572.188 136.678 572.809 136.052 572.809 135.114V117.602L587.408 135.739C588.03 136.365 588.34 136.678 588.961 136.678H594.242C594.863 136.365 595.174 136.052 595.174 135.427Z" fill="white"/>
<path d="M273.673 134.488V87.893C273.673 86.9548 273.052 86.3294 272.12 86.3294H265.286C264.354 86.3294 263.733 86.9548 263.733 87.893V134.488C263.733 135.426 264.354 136.051 265.286 136.051H272.12C273.052 135.739 273.673 135.113 273.673 134.488ZM238.262 135.738V86.6421C234.534 86.6421 228.632 89.1438 228.632 94.46V127.921C226.458 128.233 223.352 128.546 221.488 128.546C215.275 128.546 213.722 124.168 213.722 118.226V94.1473C213.412 88.2057 206.889 86.6421 204.093 86.6421V117.914C204.093 129.171 209.684 136.364 221.488 136.364C223.352 136.364 227.079 135.738 228.632 135.426V136.051C230.186 145.745 218.382 141.993 212.169 141.367C207.51 141.367 204.404 145.12 203.472 149.498C206.267 150.436 214.965 151.374 221.177 152C232.36 152.312 238.262 146.058 238.262 135.738ZM255.967 134.488V87.893C255.967 86.9548 255.346 86.3294 254.414 86.3294H247.581C246.649 86.3294 246.027 86.9548 246.027 87.893V134.488C246.027 135.426 246.649 136.051 247.581 136.051H254.414C255.346 135.739 255.967 135.113 255.967 134.488ZM250.997 73.1953C253.793 73.1953 255.967 75.3843 255.967 78.1988C255.967 81.0132 253.793 83.2022 250.997 83.2022C248.202 83.2022 246.027 81.0132 246.027 78.1988C246.027 75.697 248.202 73.1953 250.997 73.1953ZM269.014 73.1953C271.809 73.1953 273.984 75.3843 273.984 78.1988C273.984 81.0132 271.809 83.2022 269.014 83.2022C266.218 83.2022 264.044 81.0132 264.044 78.1988C264.044 75.697 266.218 73.1953 269.014 73.1953Z" fill="#BFD1DA"/>
<path fill-rule="evenodd" clip-rule="evenodd" d="M145.317 88.6623C140.465 74.5643 154.646 59.4509 166.312 59.0002C173.302 62.6713 179.304 72.312 179.004 85.3944C178.088 101.512 166.76 115.403 154.433 128.201C153.745 112.595 150.455 102.648 145.317 88.6623Z" fill="white"/>
<path fill-rule="evenodd" clip-rule="evenodd" d="M117.813 165C115.861 149.264 122.207 135.84 128.506 127.654C131.499 123.811 133.799 120.304 135.551 117.074C138.86 118.516 147.754 123.214 152.654 130.841C151.943 141.905 143.821 162.041 117.813 165Z" fill="white"/>
<path fill-rule="evenodd" clip-rule="evenodd" d="M107.985 105.232C87.2846 99.4029 82.1784 81.096 83.1022 68.7839C103.204 60.581 124.837 68.9832 137.328 86.496C146.085 98.7702 151.568 114.507 152.681 128.241C146.673 120.258 139.084 115.633 129.418 112.011C122.807 109.535 116.7 107.895 107.985 105.232Z" fill="white"/>
</g>
</g>
<defs>
<clipPath id="clip0">
<rect width="705" height="223" fill="white"/>
</clipPath>
</defs>
</svg>
