<svg width="41" height="40" viewBox="0 0 41 40" fill="none" xmlns="http://www.w3.org/2000/svg">
<path d="M40.5 20C40.5 31.0456 31.5456 40 20.5 40C9.45444 40 0.5 31.0456 0.5 20C0.5 8.95444 9.45444 0 20.5 0C31.5456 0 40.5 8.95444 40.5 20Z" fill="#FFCC4D"/>
<path fill-rule="evenodd" clip-rule="evenodd" d="M1.87788 12.2416C2.14454 12.5072 3.47566 13.3049 3.74121 14.1027C4.00788 14.8994 4.54121 19.4183 6.13899 20.7483C7.78677 22.1172 14.0023 21.6083 15.1923 21.015C17.8557 19.6872 18.1823 15.9805 18.6534 14.1027C18.919 13.0394 20.5168 13.0394 20.5168 13.0394C20.5168 13.0394 22.1145 13.0394 22.3812 14.1016C22.8523 15.9805 23.1812 19.6872 25.8423 21.0138C27.0334 21.6083 33.249 22.1183 34.899 20.7494C36.4945 19.4194 37.0268 14.9005 37.2934 14.1027C37.5579 13.3061 38.8912 12.5083 39.1568 12.2427C39.4245 11.9772 39.4245 10.9138 39.1568 10.6472C38.6245 10.1161 32.3412 9.64273 25.5757 10.3816C24.2257 10.5294 23.7123 10.9127 20.5157 10.9127C17.3212 10.9127 16.8057 10.5283 15.4568 10.3816C8.69566 9.64162 2.41121 10.1149 1.87788 10.6461C1.61232 10.9116 1.61232 11.9761 1.87788 12.2416Z" fill="#292F33"/>
<path d="M30.8722 26.2523C30.6744 26.0734 30.3789 26.0623 30.1666 26.22C30.1233 26.2523 25.8089 29.4423 20.5 29.4423C15.2044 29.4423 10.8755 26.2523 10.8333 26.22C10.6211 26.0623 10.3255 26.0756 10.1278 26.2523C9.93109 26.43 9.88664 26.7234 10.0233 26.95C10.1666 27.1889 13.5978 32.7756 20.5 32.7756C27.4022 32.7756 30.8344 27.1889 30.9766 26.95C31.1133 26.7223 31.07 26.43 30.8722 26.2523Z" fill="#664500"/>
</svg>
