<svg width="44" height="23" viewBox="0 0 44 23" fill="none" xmlns="http://www.w3.org/2000/svg">
<path fill-rule="evenodd" clip-rule="evenodd" d="M30.8881 1.85511C30.9669 1.66528 31.0824 1.49286 31.2279 1.34771C31.373 1.2022 31.5454 1.08676 31.7353 1.00799C31.9251 0.929217 32.1286 0.888672 32.3341 0.888672C32.5396 0.888672 32.7431 0.929217 32.933 1.00799C33.1228 1.08676 33.2952 1.2022 33.4404 1.34771L42.8154 10.7227C42.9609 10.8679 43.0763 11.0403 43.1551 11.2301C43.2339 11.4199 43.2744 11.6234 43.2744 11.829C43.2744 12.0345 43.2339 12.238 43.1551 12.4278C43.0763 12.6176 42.9609 12.7901 42.8154 12.9352L33.4404 22.3102C33.2951 22.4555 33.1226 22.5707 32.9328 22.6493C32.743 22.728 32.5396 22.7684 32.3341 22.7684C32.1287 22.7684 31.9252 22.728 31.7354 22.6493C31.5456 22.5707 31.3731 22.4555 31.2279 22.3102C31.0826 22.1649 30.9674 21.9925 30.8887 21.8027C30.8101 21.6128 30.7696 21.4094 30.7696 21.204C30.7696 20.9985 30.8101 20.7951 30.8887 20.6053C30.9674 20.4155 31.0826 20.243 31.2279 20.0977L37.9367 13.3914H2.26694C1.85254 13.3914 1.45511 13.2268 1.16208 12.9337C0.869057 12.6407 0.704437 12.2433 0.704437 11.8289C0.704437 11.4145 0.869057 11.017 1.16208 10.724C1.45511 10.431 1.85254 10.2664 2.26694 10.2664H37.9366L31.2279 3.56021C31.0824 3.41507 30.9669 3.24265 30.8881 3.05282C30.8094 2.86299 30.7688 2.65949 30.7688 2.45396C30.7688 2.24844 30.8094 2.04494 30.8881 1.85511Z" fill="white"/>
</svg>
