<svg width="651" height="319" viewBox="0 0 651 319" fill="none" xmlns="http://www.w3.org/2000/svg">
<path fill-rule="evenodd" clip-rule="evenodd" d="M394.534 210.431L445.838 296.384C447.886 299.758 448.511 303.809 447.575 307.644C446.639 311.48 444.219 314.786 440.846 316.836C437.474 318.886 433.426 319.512 429.592 318.575C425.759 317.638 422.454 315.216 420.406 311.842L369.102 225.889C341.703 238.128 310.672 239.463 282.324 229.622C253.976 219.781 230.439 199.503 216.502 172.915C202.564 146.326 199.274 115.423 207.299 86.4933C215.324 57.5631 234.062 32.7786 259.702 17.1818C285.342 1.585 315.956 -3.65257 345.318 2.53461C374.68 8.72179 400.583 25.8689 417.759 50.4878C434.934 75.1067 442.091 105.348 437.774 135.059C433.457 164.771 417.99 191.721 394.52 210.427L394.534 210.431ZM300.048 204.105C322.852 209.668 346.931 205.939 366.987 193.739C387.043 181.538 401.434 161.866 406.994 139.048C412.554 116.231 408.828 92.1375 396.635 72.0692C384.442 52.0008 364.781 37.601 341.977 32.0376C319.173 26.4742 295.095 30.2028 275.038 42.4033C254.982 54.6038 240.591 74.2767 235.031 97.0942C229.471 119.912 233.197 144.005 245.39 164.073C257.583 184.141 277.244 198.541 300.048 204.105Z" fill="#EA3B4A"/>
<path d="M135.625 159.542V101.792H107.042V159.542H44.0417L112.875 14H83.4167L14.5833 159.542V186.375H107.042V224H135.625V186.375H156.917V159.542H135.625Z" fill="white"/>
<path d="M617.625 159.542V101.792H589.042V159.542H526.042L594.875 14H565.417L496.583 159.542V186.375H589.042V224H617.625V186.375H638.917V159.542H617.625Z" fill="white"/>
</svg>
