<svg width="30" height="30" viewBox="0 0 30 30" fill="none" xmlns="http://www.w3.org/2000/svg">
<path d="M13.5918 15.704C13.8941 16.1081 14.2798 16.4425 14.7227 16.6845C15.1657 16.9265 15.6555 17.0704 16.1589 17.1065C16.6623 17.1425 17.1676 17.0699 17.6405 16.8935C18.1134 16.7171 18.5428 16.4411 18.8996 16.0841L21.0115 13.9722C21.6527 13.3084 22.0074 12.4193 21.9994 11.4964C21.9914 10.5735 21.6212 9.69072 20.9686 9.03812C20.316 8.38553 19.4332 8.01535 18.5103 8.00734C17.5875 7.99932 16.6984 8.35409 16.0345 8.99525L14.8237 10.199" stroke="#EA3B4A" stroke-width="2" stroke-linecap="round" stroke-linejoin="round"/>
<path d="M16.4078 14.296C16.1054 13.8919 15.7197 13.5575 15.2768 13.3155C14.8339 13.0735 14.3441 12.9296 13.8407 12.8935C13.3372 12.8575 12.8319 12.9301 12.3591 13.1065C11.8862 13.2829 11.4567 13.5589 11.0999 13.9159L8.98805 16.0278C8.34689 16.6916 7.99211 17.5807 8.00013 18.5036C8.00815 19.4265 8.37832 20.3093 9.03092 20.9619C9.68352 21.6145 10.5663 21.9846 11.4892 21.9927C12.4121 22.0007 13.3012 21.6459 13.965 21.0047L15.1688 19.801" stroke="#EA3B4A" stroke-width="2" stroke-linecap="round" stroke-linejoin="round"/>
</svg>
