<svg width="32" height="32" viewBox="0 0 32 32" fill="none" xmlns="http://www.w3.org/2000/svg">
<path fill-rule="evenodd" clip-rule="evenodd" d="M10 4C9.20435 4 8.44129 4.36348 7.87868 5.01048C7.31607 5.65748 7 6.535 7 7.45V23.55C7 24.465 7.31607 25.3425 7.87868 25.9895C8.44129 26.6365 9.20435 27 10 27H22C22.7956 27 23.5587 26.6365 24.1213 25.9895C24.6839 25.3425 25 24.465 25 23.55V12.05C25 9.91501 24.2625 7.86746 22.9497 6.35779C21.637 4.84812 19.8565 4 18 4H10ZM10 6.3H17V12.05H23V23.55C23 23.855 22.8946 24.1475 22.7071 24.3632C22.5196 24.5788 22.2652 24.7 22 24.7H10C9.73478 24.7 9.48043 24.5788 9.29289 24.3632C9.10536 24.1475 9 23.855 9 23.55V7.45C9 7.145 9.10536 6.85249 9.29289 6.63683C9.48043 6.42116 9.73478 6.3 10 6.3ZM19 6.415C19.786 6.60017 20.5218 6.99976 21.1455 7.58013C21.7692 8.16049 22.2625 8.90466 22.584 9.75H19V6.415Z" fill="#008BCA"/>
</svg>
