<svg width="16" height="12" viewBox="0 0 16 12" fill="none" xmlns="http://www.w3.org/2000/svg">
<path d="M15.4026 5.62503C14.9226 4.79253 12.2826 0.615026 7.79755 0.750026C3.65005 0.855026 1.25005 4.50003 0.597551 5.62503C0.531725 5.73904 0.49707 5.86837 0.49707 6.00003C0.49707 6.13168 0.531725 6.26101 0.597551 6.37503C1.07005 7.19253 3.59755 11.25 8.01505 11.25H8.20255C12.3501 11.145 14.7576 7.50003 15.4026 6.37503C15.4684 6.26101 15.503 6.13168 15.503 6.00003C15.503 5.86837 15.4684 5.73904 15.4026 5.62503ZM8.16505 9.75003C4.93255 9.82503 2.82505 7.05753 2.16505 6.00003C2.91505 4.79253 4.87255 2.32503 7.87255 2.25003C11.0901 2.16753 13.2051 4.94253 13.8726 6.00003C13.1001 7.20753 11.1651 9.67503 8.16505 9.75003Z" fill="#051A1F"/>
<path d="M8 3.375C7.48083 3.375 6.97331 3.52895 6.54163 3.81739C6.10995 4.10583 5.7735 4.5158 5.57482 4.99546C5.37614 5.47511 5.32415 6.00291 5.42544 6.51211C5.52673 7.02131 5.77673 7.48904 6.14385 7.85616C6.51096 8.22327 6.97869 8.47328 7.48789 8.57456C7.99709 8.67585 8.52489 8.62386 9.00455 8.42518C9.4842 8.2265 9.89417 7.89005 10.1826 7.45837C10.471 7.02669 10.625 6.51918 10.625 6C10.625 5.30381 10.3484 4.63613 9.85616 4.14384C9.36387 3.65156 8.69619 3.375 8 3.375ZM8 7.125C7.7775 7.125 7.55999 7.05902 7.37499 6.9354C7.18998 6.81179 7.04579 6.63609 6.96064 6.43052C6.87549 6.22495 6.85321 5.99875 6.89662 5.78052C6.94003 5.56229 7.04717 5.36184 7.20451 5.2045C7.36184 5.04717 7.5623 4.94002 7.78052 4.89662C7.99875 4.85321 8.22495 4.87549 8.43052 4.96064C8.63609 5.04578 8.81179 5.18998 8.93541 5.37498C9.05902 5.55999 9.125 5.7775 9.125 6C9.125 6.29837 9.00648 6.58452 8.7955 6.7955C8.58452 7.00647 8.29837 7.125 8 7.125Z" fill="#051A1F"/>
</svg>
