<svg width="270" height="73" viewBox="0 0 270 73" fill="none" xmlns="http://www.w3.org/2000/svg">
<path d="M39.8114 72.2189C32.4158 72.2189 24.7339 72.1525 16.9793 72.0216L15.2203 71.9922C11.5416 71.931 7.3751 71.8618 3.74063 71.7528C1.71854 71.6921 0.047132 70.0819 0.00102731 68.0595C-0.0468039 65.96 1.58144 64.2514 3.6685 64.1883C3.67361 64.1882 3.67872 64.1881 3.68384 64.1879C4.44447 64.1649 4.95143 63.3865 4.65632 62.6851C2.70822 58.0549 1.69782 53.0587 1.69782 47.9343C1.69782 39.9677 4.1337 32.3379 8.74219 25.8695C12.7064 20.3056 18.0142 15.9576 24.1896 13.1926C24.2729 12.5171 24.4165 11.8926 24.6216 11.3102C25.3304 9.29678 26.4284 6.69433 28.646 4.42273C31.5106 1.48807 35.3471 0 40.0488 0C44.7671 0 48.6377 1.52555 51.5531 4.53431C54.2695 7.33711 55.1675 10.503 55.4275 11.7341C55.528 12.2098 55.5933 12.7378 55.6236 13.3248C61.7155 16.1147 66.9479 20.4521 70.8543 25.9744C75.4142 32.4201 77.8244 40.0137 77.8244 47.9343C77.8244 53.0804 76.8036 58.0994 74.8362 62.7495C74.5566 63.41 75.0234 64.1454 75.7402 64.1672C75.7519 64.1675 75.7634 64.1679 75.775 64.1682C77.7954 64.2296 79.4647 65.8386 79.5114 67.8593C79.56 69.9592 77.9318 71.6688 75.8446 71.7324C72.0333 71.8484 67.8685 71.9438 63.1121 72.0243C55.3837 72.1536 47.8624 72.2192 40.7565 72.2192L39.8114 72.2189Z" fill="white"/>
<path d="M27.6776 16.1504L21.398 19.3209L17.1297 22.5666L12.3422 27.8347L9.4771 32.4737L7.53028 37.0944L6.00352 43.8887L5.83105 50.067L6.63262 55.5997L8.30108 61.7756L12.3692 67.9702H67.4865L70.6455 61.5512L72.956 55.3042L73.7571 45.992L72.3209 38.128L69.7944 31.9934L66.1979 26.562L61.8116 22.06L58.0472 18.8222L51.6994 16.5095L27.6776 16.1504Z" fill="#008ACA"/>
<path d="M73.0623 52.1282C73.2753 50.7977 73.1467 49.6475 72.671 48.6187C72.0709 47.3208 70.964 46.3628 69.5531 45.9208C66.8799 45.0839 58.7126 40.63 53.6485 37.7146C53.246 37.3447 52.8582 37.0122 52.4882 36.7197L52.562 35.9379C53.2136 34.5227 53.7338 33.0119 54.1149 31.4275C54.2085 31.3438 54.2991 31.2562 54.3867 31.1651C55.382 30.1312 56.0963 28.5922 56.2773 27.1812C57.7305 24.5553 57.8555 21.5259 57.4548 19.32L53.3106 16.746C53.3106 16.746 52.6096 16.5657 51.5814 16.3026C51.4345 16.265 51.8198 16.807 51.2252 19.0144C51.1414 19.3255 51.1435 22.6119 51.054 22.9513C50.9232 23.4474 51.0236 26.5138 50.8829 27.0594C50.7959 27.3967 50.6306 29.6171 50.5405 29.9693C50.3917 30.5518 49.4973 32.609 49.3423 33.2216C49.193 33.8117 48.8102 35.5257 48.6577 36.1316C48.5388 36.6032 48.6059 38.7381 48.4865 39.2127C48.3008 39.9502 50.5532 39.1702 50.3694 39.8973C50.2331 40.4359 52.6339 42.0368 53.1081 42.2937C57.2163 44.5189 59.1495 45.3713 58.9279 45.0325L62.5226 47.0865C65.3175 48.5729 67.2854 49.0667 69.0271 49.8253C69.1982 50.51 69.3694 51.7082 69.3694 53.4199L70.2253 57.0145L71.0812 60.0956L72.3958 57.4847L73.2585 53.0541L73.0623 52.1282Z" fill="#037EA5"/>
<path d="M14.2861 68.071H16.0702C17.0332 68.071 20.2195 67.9466 21.6482 67.9466C23.6422 67.9466 28.066 68.071 29.0745 68.071H31.2064C32.1234 68.071 35.6836 67.9777 37.0133 67.9777C37.9385 67.9777 40.1678 68.071 40.6599 68.071H42.7918C43.3557 68.071 46.5549 68.0244 47.3838 68.0244C48.6664 68.0244 51.5891 68.071 52.2448 68.071H56.2272C56.53 68.071 57.626 68.071 57.927 68.071H59.8061C60.3159 68.071 62.0113 68.071 62.5211 68.071H64.401C64.5442 68.071 65.0829 68.071 65.2181 68.071H66.9579L68.301 66.4135L70.9387 61.2392L69.2512 53.1985L69.0527 49.8482L61.955 46.56L55.2545 42.8854L50.8867 40.6242L48.5539 39.2266L31.2069 39.5988L30.3879 39.8222L28.1048 41.1871L24.8289 43.4951L19.4189 45.5549L12.7679 48.6819L11.6759 49.8482V51.2628L11.3782 52.5532L8.84681 61.0407L8.59863 61.5867L12.3594 68.0031C13.1558 68.0308 14.0552 68.071 14.2861 68.071Z" fill="#283F6E"/>
<path d="M62.2226 58.4326C62.2226 58.4326 61.9293 65.4069 64.9158 67.8996C65.2624 68.1889 60.1753 67.8991 60.1753 67.8991L60.4202 64.6337L62.2226 58.4326Z" fill="#1F3456"/>
<path d="M28.7502 20.0418L28.1047 16.9149L28.2288 12.3238L29.9412 9.04789L32.944 5.92096L36.2695 4.45679L40.7861 3.81152L44.3846 4.53123L47.313 5.99545L49.7751 8.60123L51.5318 11.3807L51.7552 14.8799L51.2478 19.0243L52.7975 18.3295L53.4179 19.1484L53.691 21.5556L53.3683 23.7643L51.9786 26.1716V27.9336L50.7873 28.9263L49.9932 31.5568L48.4526 35.6681L46.5734 37.7363L45.6159 38.9275L43.3521 41.2106L39.3468 41.434L35.615 40.3536L33.3411 37.7611L30.8097 34.4602L29.3704 29.2737L28.4077 28.6285L27.6774 27.611V26.0475L26.3675 22.9206L26.1689 20.017L26.9135 18.5032L27.8813 18.6024L28.7502 20.0418Z" fill="#FFCDAF"/>
<path d="M53.2254 18.8216L51.5943 18.3303L51.7433 13.3793L50.7382 9.8429L47.8718 6.38096L44.8194 4.74306L40.4267 3.84961L37.207 4.03576L35.8179 4.65667C42.7746 5.39095 48.106 11.347 43.2898 20.6563C43.2898 20.6563 41.8413 21.4945 40.6501 21.4201C40.6501 21.4201 40.3523 22.4251 41.2457 22.9463C41.2457 22.9463 42.7326 31.857 38.9552 32.0548L37.207 31.7837L36.6673 31.3538C36.6673 31.3538 37.1919 32.7813 38.0239 32.7738C38.0239 32.7738 38.6215 33.6597 39.9125 33.6972C40.2528 33.7071 39.2188 34.7988 39.6572 34.659C39.6572 34.659 41.7977 34.9541 40.0908 37.0939L40.092 37.1C39.3728 37.0702 38.5948 36.93 37.7988 36.6019C37.6921 36.5579 37.5983 36.6876 37.6766 36.7724C38.002 37.1243 40.0723 37.0292 38.7266 38.1274C38.3287 38.3828 38.5028 38.7616 38.8941 38.6953C39.0702 38.6654 39.2427 38.654 39.4153 38.6394C39.7244 38.5888 40.1055 38.7903 40.4241 38.82L41.5185 41.2825L44.1988 40.6238L44.9793 39.6714L47.673 39.4247L48.5543 38.3079L48.23 35.0973L49.6214 32.5132L50.7009 28.7534L51.344 28.4637L52.2368 26.0732L53.5355 22.6236L53.2254 18.8216Z" fill="#EBBAA1"/>
<path d="M38.819 24.9113C38.819 24.9113 38.6706 24.2714 38.6955 23.666C38.6955 23.666 38.0774 24.0462 37.7736 24.7579C37.2614 24.3332 36.2863 23.8204 35.1368 23.85C33.7957 23.8846 32.8588 24.5043 32.3253 24.7218C32.1909 24.7766 32.1919 24.9663 32.3271 25.0195C33.083 25.3175 34.7999 25.8912 36.5391 25.7613C36.5391 25.7613 36.9966 25.7804 37.5563 25.7576C37.8119 26.0139 38.1872 26.5851 37.9821 27.6239C37.7207 28.9491 36.4288 29.2497 36.3118 30.4859L36.2753 30.5424C36.1993 30.6422 36.1163 30.7313 36.0139 30.8067C35.8152 30.9601 35.5794 31.0808 35.3402 31.2063C34.8601 31.4539 34.3443 31.7245 33.9205 32.1276C33.4937 32.5248 33.1938 33.0545 33.0939 33.5948C32.9903 34.1357 33.0436 34.6754 33.2091 35.1729C33.277 34.652 33.3524 34.1499 33.5234 33.6902C33.6902 33.2292 33.961 32.8275 34.3214 32.4872C34.6803 32.1432 35.1281 31.8647 35.5814 31.5443C35.8049 31.3805 36.0363 31.2056 36.2168 30.9759C36.2519 30.9324 36.2827 30.8854 36.311 30.8372C36.3168 30.914 36.3254 30.993 36.3396 31.0765C36.5317 32.2067 36.9086 31.0765 36.9086 31.0765C36.9086 31.0765 36.7091 28.9618 38.819 28.8776L38.6955 26.6343L38.819 24.9113Z" fill="#EBBAA1"/>
<path d="M31.3034 23.2107C31.1915 23.2584 31.0885 23.1256 31.163 23.0295C31.5995 22.4664 32.637 21.4521 34.3861 21.5665C36.0841 21.6775 36.181 22.2463 37.5669 22.5155C37.9444 22.5889 38.0737 23.0756 37.7703 23.3119C37.5974 23.4465 37.2461 23.6509 36.9142 23.6513C35.7622 23.6526 35.1131 22.8454 34.0051 22.7403C33.2724 22.6707 32.3346 22.7713 31.3034 23.2107Z" fill="#EBBAA1"/>
<path d="M35.7276 30.6621C35.736 30.778 35.7265 30.9024 35.6812 31.0192C35.6369 31.1349 35.5687 31.2459 35.4848 31.338C35.3178 31.5263 35.1135 31.661 34.9165 31.7867C34.5183 32.0309 34.1281 32.2384 33.8051 32.5121C33.4814 32.7825 33.226 33.1157 33.0508 33.5111C32.8724 33.9048 32.7689 34.345 32.6697 34.8026C32.5755 34.3447 32.5768 33.8594 32.7067 33.3873C32.8336 32.9153 33.1236 32.4708 33.5064 32.1558C33.8874 31.8352 34.3329 31.6409 34.7471 31.464C34.9535 31.3738 35.1569 31.2877 35.3326 31.1691C35.4228 31.1112 35.4982 31.0394 35.5689 30.9574L35.6173 30.8917C35.633 30.8692 35.6436 30.8439 35.6578 30.8197C35.6899 30.7718 35.7019 30.7165 35.7276 30.6621Z" fill="#262A23"/>
<path d="M43.848 30.6621C43.8737 30.7164 43.8856 30.7717 43.9177 30.8196C43.9319 30.8438 43.9425 30.8691 43.9583 30.8917L44.0067 30.9573C44.0773 31.0393 44.1527 31.1111 44.243 31.169C44.4187 31.2876 44.622 31.3738 44.8285 31.4639C45.2427 31.6409 45.6881 31.8351 46.0692 32.1557C46.452 32.4707 46.7419 32.9152 46.8689 33.3872C46.9988 33.8593 47.0001 34.3447 46.9059 34.8025C46.8067 34.3449 46.7031 33.9048 46.5247 33.511C46.3496 33.1156 46.0942 32.7824 45.7704 32.5121C45.4475 32.2383 45.0572 32.0309 44.659 31.7866C44.4621 31.6609 44.2578 31.5262 44.0908 31.3379C44.0069 31.2459 43.9387 31.1349 43.8944 31.0192C43.8491 30.9024 43.8396 30.778 43.848 30.6621Z" fill="#262A23"/>
<path d="M39.9215 33.1606C39.1998 33.1606 38.7863 32.8085 38.5126 32.5755C38.3732 32.4572 38.3042 32.4029 38.2552 32.3884L38.2444 32.3853L38.2332 32.3849C37.2735 32.3593 36.5923 31.9425 36.3641 31.2414C36.2364 30.8482 36.5263 30.3645 36.7919 30.0276C36.8195 29.9927 36.8526 29.9854 36.8755 29.9854C36.9059 29.9854 36.936 29.9984 36.9562 30.0201C36.9754 30.0409 36.9841 30.0673 36.9816 30.0983C36.9511 30.5034 36.9834 30.8133 37.078 31.0194C37.2541 31.4032 37.6756 31.6237 38.2651 31.6399C38.5757 31.6486 38.7894 31.8304 38.996 32.0065C39.2314 32.2068 39.4748 32.4139 39.9217 32.4139C40.3452 32.4132 40.5573 32.2444 40.7624 32.0812C40.9397 31.94 41.1404 31.78 41.4276 31.78L41.4994 31.7808C41.9913 31.7808 42.3825 31.5822 42.6632 31.1905C42.8013 30.998 42.8849 30.6618 42.9118 30.1913C42.9156 30.1239 42.9694 30.0934 43.018 30.0934C43.0417 30.0934 43.0855 30.1008 43.1116 30.1515C43.3197 30.5522 43.5291 31.111 43.3455 31.4975C43.0393 32.1429 42.3555 32.5282 41.5165 32.5282C41.4932 32.5282 41.424 32.5267 41.424 32.5267L41.4047 32.5365C41.3662 32.5563 41.3067 32.6026 41.233 32.6611C40.9958 32.8501 40.6075 33.1597 39.9245 33.1606H39.9215Z" fill="#262A23"/>
<path d="M38.4922 29.9006C38.5873 29.4158 38.6346 28.9533 38.64 28.4877C38.6473 28.023 38.6178 27.5582 38.588 27.0851C38.5581 26.6124 38.5273 26.1307 38.5399 25.6408C38.5548 25.1535 38.6098 24.6497 38.7961 24.1895C38.8347 24.6814 38.8989 25.1454 38.966 25.6174C39.0319 26.0882 39.0993 26.5638 39.1294 27.0513C39.1595 27.5376 39.1533 28.0379 39.063 28.531C38.9724 29.0218 38.7941 29.5074 38.4922 29.9006Z" fill="#262A23"/>
<path d="M31.2109 22.5428C31.0981 22.5863 30.9914 22.4587 31.0656 22.3688C31.4997 21.8421 32.483 21.1308 34.2605 21.267C35.9858 21.3992 36.0931 21.9398 37.5042 22.2169C37.8887 22.2924 38.0813 22.5222 37.777 22.7414C37.6036 22.8663 37.3615 22.9572 37.0246 22.9523C35.8552 22.9353 35.297 22.3341 34.1707 22.2169C33.4259 22.1394 32.2507 22.1428 31.2109 22.5428Z" fill="#262A23"/>
<path d="M31.207 35.6309V38.7793L35.2522 40.6237L33.264 37.3399L31.207 35.6309Z" fill="#EBBAA1"/>
<path d="M28.9734 20.6877L27.8815 18.4541L26.6047 18.7023L26.1691 20.3402L26.0698 22.8715L27.8567 26.1722L27.6775 27.959L29.2712 28.8772L28.9238 26.3459L29.023 22.6234L28.9734 20.6877Z" fill="#EBBAA1"/>
<path d="M31.207 39.2266L32.2058 49.3519L36.6426 49.0138L35.9953 46.809L36.493 45.8031L39.5786 42.2661L35.0288 40.4178L31.207 39.2266Z" fill="white"/>
<path d="M35.8783 4.9043C35.8783 4.9043 28.041 9.11683 28.7503 17.8982L28.1049 16.9152L27.8999 14.3246L28.9422 10.8005L31.6283 7.02837L34.1666 4.9043H35.8783Z" fill="white"/>
<path d="M17.4149 53.8057C17.335 55.3411 18.0588 64.9023 16.6253 66.6148C16.4049 66.878 15.7711 67.3702 15.1256 67.8421C14.2885 68.454 19.3873 68.1413 19.3873 68.1413L18.8738 62.1503L17.4149 53.8057Z" fill="#1F3456"/>
<path d="M30.7048 40.4078C30.7048 40.4078 26.4239 42.9392 24.4882 47.5551L23.8926 46.8712L25.0465 44.3573L26.9078 42.0829L30.072 40.2217L30.7048 40.4078Z" fill="white"/>
<path d="M24.9343 43.8877C24.9343 43.8877 13.0784 48.9231 12.6499 50.1601C12.2214 51.3972 12.6499 52.2448 12.6499 52.2448L11.5332 50.8302L11.8955 49.6129L13.7295 48.2244L17.6754 46.2488L23.892 43.4941L24.6365 43.534L24.9343 43.8877Z" fill="white"/>
<path d="M31.9937 24.2944L33.9433 23.6572L36.0814 24.0026L36.3393 24.7957L35.1543 24.9022L33.5785 24.915L31.9937 24.2944Z" fill="white"/>
<path d="M37.2885 24.7637C36.8954 24.3395 35.8647 23.4033 34.4885 23.4856C33.1493 23.5656 32.2455 24.0155 31.7198 24.2509C31.5872 24.3103 31.5947 24.4999 31.7316 24.5485C32.4972 24.8205 34.2326 25.3358 35.9663 25.1469L35.3724 25.471C35.3111 25.5044 35.3411 25.5979 35.4102 25.5887C35.8239 25.5336 36.5736 25.3981 37.2278 25.0879C37.3525 25.0287 37.3824 24.8649 37.2885 24.7637ZM33.1815 24.1428C33.319 24.0763 33.5512 23.9772 33.8407 23.9036C33.8871 23.8919 33.9295 23.9334 33.9194 23.9801C33.9045 24.0489 33.8976 24.1207 33.9001 24.1943C33.9055 24.3438 33.9484 24.483 34.0193 24.6036C34.0336 24.628 34.013 24.6583 33.9856 24.6512C33.7054 24.5793 33.4288 24.4692 33.1743 24.3051C33.1129 24.2655 33.1157 24.1746 33.1815 24.1428ZM36.2073 24.6267C36.0617 24.6607 35.819 24.709 35.5229 24.7396C35.4847 24.7436 35.4599 24.7005 35.4823 24.6692C35.5903 24.5181 35.6513 24.3317 35.6441 24.1316C35.643 24.1013 35.6388 24.0721 35.6348 24.0427C35.8429 24.1448 36.049 24.2846 36.2465 24.4738C36.2983 24.5233 36.277 24.6104 36.2073 24.6267Z" fill="#262A23"/>
<path d="M47.7396 24.2846L45.7874 23.6553L43.6507 24.0093L43.396 24.8035L44.5815 24.9052L46.1572 24.9115L47.7396 24.2846Z" fill="white"/>
<path d="M42.596 25.0984C43.2515 25.4059 44.0017 25.5384 44.4157 25.5918C44.4849 25.6007 44.5144 25.5071 44.453 25.4739L43.8578 25.1522C45.5923 25.334 47.3255 24.8118 48.09 24.5365C48.2266 24.4874 48.2334 24.2978 48.1007 24.239C47.5739 24.0057 46.6683 23.5594 45.3288 23.4849C43.9523 23.4082 42.9254 24.3487 42.534 24.7744C42.4406 24.876 42.4711 25.0397 42.596 25.0984ZM46.6463 24.299C46.3925 24.4642 46.1164 24.5754 45.8364 24.6485C45.8091 24.6556 45.7884 24.6255 45.8026 24.6011C45.8729 24.4801 45.9153 24.3407 45.92 24.1912C45.9224 24.1176 45.9152 24.0459 45.8999 23.9771C45.8896 23.9305 45.9319 23.8887 45.9782 23.9003C46.268 23.9727 46.5007 24.071 46.6385 24.1368C46.7044 24.1683 46.7076 24.2592 46.6463 24.299ZM43.5748 24.4803C43.7716 24.2902 43.9771 24.1497 44.1848 24.0466C44.1809 24.0761 44.1768 24.1053 44.1758 24.1357C44.1695 24.3357 44.2312 24.522 44.3398 24.6726C44.3623 24.7038 44.3378 24.7469 44.2995 24.7431C44.0032 24.7137 43.7605 24.6665 43.6147 24.633C43.5449 24.617 43.5232 24.53 43.5748 24.4803Z" fill="#262A23"/>
<path d="M39.9919 35.0435C41.7425 35.0435 42.4904 35.3128 43.2983 35.3128C43.9865 35.3128 44.6647 34.9438 44.6647 34.9438C44.8144 35.0485 45.1235 34.864 45.1684 34.6844C45.2133 34.5049 44.6299 34.0112 44.585 34.2506C44.54 34.49 44.0314 34.8041 43.6724 34.8041C43.3132 34.8041 42.261 33.9863 41.518 33.9514C41.1791 33.9354 40.5721 34.0868 40.2348 34.1802C40.0757 34.2242 39.9081 34.2242 39.749 34.1802C39.4117 34.0868 38.8047 33.9354 38.4659 33.9514C37.7229 33.9863 36.6706 34.8041 36.3115 34.8041C35.9525 34.8041 35.4438 34.49 35.3989 34.2506C35.354 34.0112 34.7706 34.5049 34.8154 34.6844C34.8603 34.864 35.1695 35.0485 35.3191 34.9438C35.3191 34.9438 35.9973 35.3128 36.6855 35.3128C37.4934 35.3128 38.2413 35.0435 39.9919 35.0435Z" fill="#262A23"/>
<path d="M43.0492 35.9288C43.1144 35.8556 43.0334 35.747 42.9432 35.7853C41.9303 36.2158 40.9427 36.3446 40.0674 36.3205C39.2118 36.344 38.2489 36.2215 37.2601 35.8139C37.1527 35.7697 37.0582 35.9002 37.1371 35.9854C37.4645 36.3395 38.0617 36.8662 38.9101 37.1436C38.8578 37.1607 38.8048 37.1758 38.7538 37.1964C38.5738 37.2553 38.4082 37.3517 38.2451 37.443C37.8448 37.6999 37.9478 37.7584 38.3416 37.6916C38.5187 37.6616 38.6874 37.6242 38.861 37.6096C39.2014 37.5538 39.54 37.5396 39.8762 37.5318C40.2135 37.5251 40.5506 37.5519 40.8922 37.595C41.143 37.6265 41.3939 37.6693 41.6535 37.7232C41.738 37.7407 41.7872 37.6316 41.7197 37.578C41.5158 37.4162 41.2807 37.2938 41.0369 37.1996C42.034 36.93 42.7137 36.3051 43.0492 35.9288Z" fill="#262A23"/>
<path d="M26.0699 50.0655L23.7103 49.5591C23.2229 49.4545 22.971 48.9126 23.2052 48.4725L23.8921 47.1816L24.7972 47.5539L27.5401 48.6235L27.019 49.6124L26.0699 50.0655Z" fill="#1F3456"/>
<path d="M39.1562 43.2235C38.2453 43.9522 37.4477 44.7659 36.778 45.6752C36.4258 46.1534 36.3447 46.7798 36.5539 47.3357L37.25 49.1852L42.3998 49.1207L43.234 47.4156C43.5285 46.8137 43.4631 46.0916 43.0488 45.5648C42.3235 44.6427 41.3927 43.8854 40.3824 43.1834C40.0107 42.9251 39.5096 42.9407 39.1562 43.2235Z" fill="#BF3F49"/>
<path d="M11.1118 53.4461C11.1118 53.4461 12.65 54.5974 12.985 57.4416C13.3201 60.2858 13.9901 55.7746 13.2083 54.1774C12.4266 52.5801 11.6821 52.2451 11.6821 52.2451L11.1118 53.4461Z" fill="#1F3456"/>
<path d="M39.7612 43.3406C39.7612 43.3406 41.9374 45.7387 41.7877 47.0225C41.6378 48.3063 40.0991 49.1852 40.0991 49.1852H42.7745L44.0128 46.7658L42.4937 44.8829C42.4937 44.8829 41.0602 43.5613 40.9746 43.4946C40.889 43.4279 39.7612 43 39.7612 43V43.3406Z" fill="#A33446"/>
<path d="M48.6111 22.5428C48.7239 22.5863 48.8306 22.4587 48.7565 22.3688C48.3224 21.8421 47.339 21.1308 45.5616 21.267C43.8363 21.3992 43.7289 21.9398 42.3178 22.2169C41.9334 22.2924 41.7408 22.5222 42.0451 22.7414C42.2184 22.8663 42.4605 22.9572 42.7975 22.9523C43.9669 22.9353 44.5251 22.3341 45.6514 22.2169C46.3962 22.1394 47.5714 22.1428 48.6111 22.5428Z" fill="#262A23"/>
<path d="M21.3062 67.7744C23.3002 67.7744 27.724 67.8988 28.7326 67.8988H30.8644C31.7814 67.8988 35.3416 67.8055 36.6714 67.8055C37.5966 67.8055 39.8258 67.8988 40.3179 67.8988H42.4498C43.0137 67.8988 46.2129 67.8521 47.0419 67.8521C48.3244 67.8521 51.2472 67.8988 51.9029 67.8988H55.8853C56.188 67.8988 57.2841 67.8988 57.5851 67.8988H59.4642C59.6772 67.8988 60.0979 67.8988 60.552 67.8988L62.5803 54.223L62.8913 52.3566L61.0249 50.9957L48.1937 49.382L37.4262 49.0127L29.9188 49.382L22.2582 50.1804L18.1009 51.6567L17.5542 53.2898L19.5202 67.8046C20.2087 67.7872 20.848 67.7744 21.3062 67.7744Z" fill="#DFDFDB"/>
<path d="M42.9489 48.9273L47.7036 49.3699L48.0824 45.1578L48.5539 39.2266L44.9058 39.8222L40.5132 42.4528L44.2658 46.8715L42.9489 48.9273Z" fill="white"/>
<path d="M46.5263 49.5801C46.5263 49.5801 56.7972 51.4611 57.3482 56.508C57.8226 60.8537 56.0366 65.5968 46.3602 68.0121C44.1692 68.5589 60.3944 67.8751 60.3944 67.8751L62.4612 54.1903L62.3057 51.9837L59.6617 50.5353L51.1886 49.741L46.5263 49.5801Z" fill="#C3C3C3"/>
<path d="M46.9039 49.3517C46.9039 49.3517 19.033 50.6791 17.5542 53.2908L17.415 52.2456L18.234 51.452L20.6399 50.8243L25.9463 50.1396L34.4193 49.2838L42.4372 49.1855L46.9039 49.3517Z" fill="white"/>
<path d="M37.3315 60.4303C37.3315 61.8157 38.6452 62.9388 40.2657 62.9388C41.8863 62.9388 43.1999 61.8157 43.1999 60.4303C43.1999 59.0449 41.8863 57.9219 40.2657 57.9219C38.6452 57.9219 37.3315 59.0449 37.3315 60.4303Z" fill="#C3C3C3"/>
<path d="M52.4234 49.3116L55.3611 48.5327C55.8485 48.4281 56.1005 47.8862 55.8663 47.4461L55.1794 46.1553L54.2743 46.5275L51.7388 47.771V48.627L52.4234 49.3116Z" fill="#1F3456"/>
<path d="M40.3143 63.4487C38.5378 63.4487 37.009 62.2534 36.758 60.6683C36.6271 59.8404 37.0139 59.1814 37.3614 58.7745C38.0712 57.9436 39.2854 57.3633 40.3144 57.3633C41.3434 57.3633 42.5576 57.9435 43.2673 58.7742C43.615 59.1812 44.002 59.8402 43.8709 60.6684C43.6198 62.2534 42.0908 63.4487 40.3143 63.4487ZM40.3144 58.1755C39.5224 58.1755 38.788 58.4841 38.2996 59.0221C37.9032 59.4586 37.7139 59.9976 37.7663 60.5398C37.8819 61.7352 38.9774 62.6366 40.3143 62.6366C41.6513 62.6366 42.7469 61.7352 42.8627 60.5398C42.9152 59.9976 42.7258 59.4586 42.3295 59.0221C41.841 58.4841 41.1065 58.1755 40.3144 58.1755Z" fill="#262A23"/>
<path d="M75.7427 67.5516C73.3264 67.478 70.9101 67.418 68.4937 67.3657C68.492 67.3657 68.491 67.3638 68.492 67.3624C72.3895 61.6209 74.442 54.943 74.442 47.9345C74.442 40.7176 72.2466 33.7995 68.093 27.928C64.1041 22.2893 58.6151 18.0178 52.2024 15.5539C52.2015 15.5536 52.201 15.5526 52.201 15.5516C52.3024 14.2235 52.2755 13.1779 52.1181 12.4333C51.9624 11.6966 51.2865 9.11956 49.1241 6.88837C46.8701 4.56229 43.8168 3.38281 40.049 3.38281C36.293 3.38281 33.2708 4.52775 31.0666 6.78593C29.3118 8.5835 28.4057 10.7484 27.8124 12.4337C27.5321 13.2298 27.4329 14.2491 27.5138 15.4783C27.5139 15.4793 27.5133 15.4802 27.5124 15.4805C21.056 17.9169 15.5245 22.1802 11.4973 27.8325C7.2995 33.7245 5.08059 40.6757 5.08059 47.9345C5.08059 54.9551 7.13375 61.634 11.0376 67.3769C11.0387 67.3783 11.0376 67.3802 11.0359 67.3803C8.83221 67.4291 5.97448 67.5031 3.77079 67.5696C3.25328 67.5853 3.2536 68.3541 3.77105 68.3698C7.97489 68.4967 12.8328 68.5684 17.0367 68.6397C24.7064 68.7692 32.3761 68.838 40.0458 68.8366C47.7156 68.8412 55.3853 68.7707 63.0551 68.6424C67.284 68.5709 71.5129 68.4802 75.7418 68.3515C76.2589 68.3358 76.2598 67.5673 75.7427 67.5516ZM52.0345 17.1536C52.0467 17.059 52.1451 17.0016 52.2336 17.0374C64.736 22.0906 73.0726 34.3898 73.0726 47.9345C73.0726 51.3996 72.5236 54.7803 71.4997 57.9778C71.3853 58.335 70.8727 58.3116 70.7951 57.9446L69.6747 52.6552C69.6105 52.3532 69.599 52.0407 69.6559 51.7373C69.78 51.0768 69.7724 50.5067 69.5638 50.0556C69.3688 49.6336 69.0211 49.3418 68.5304 49.188C64.5226 47.9332 52.4592 40.9818 51.5996 40.485C51.5994 40.4849 51.5994 40.4848 51.5992 40.4847C51.0336 39.9487 50.4693 39.4645 49.9554 39.0956C49.305 38.6286 48.9423 37.8594 49.0175 37.0623L49.2109 35.0119C49.2109 35.0116 49.211 35.0114 49.2111 35.0111C49.9108 33.6013 50.5653 31.8436 50.9876 29.71C51.0379 29.4549 51.2055 29.2403 51.4358 29.1358C51.6164 29.0537 51.7796 28.9375 51.9205 28.7911C52.535 28.1525 52.9246 27.0526 52.8981 26.4537C52.8897 26.2647 52.9432 26.0754 53.0528 25.9062C54.4492 23.7521 54.3896 20.9022 53.9467 19.3143C53.7543 18.624 53.4267 18.1684 52.9993 17.9967C52.6737 17.8658 52.3484 17.8635 52.0321 17.9898C51.9959 18.0047 51.9681 17.9876 51.9581 17.9794C51.948 17.9715 51.9248 17.9484 51.9305 17.9095C51.9686 17.6503 52.0031 17.3985 52.0345 17.1536ZM51.1197 48.9114L51.4843 49.2137C51.486 49.2151 51.4848 49.2178 51.4827 49.2176C50.911 49.158 50.3396 49.1016 49.769 49.0511C49.6603 49.0416 49.369 49.02 48.9864 48.9928C48.6334 48.9677 48.3681 48.6592 48.3952 48.3064C48.6482 45.0199 48.7654 42.2974 48.8145 40.6718C48.8312 40.1208 49.4709 39.8263 49.8991 40.1735C50.3828 40.5657 50.9735 41.0995 51.6654 41.8024C53.5169 43.6836 54.6207 45.2549 54.8276 45.8381C54.828 45.8392 54.8275 45.8403 54.8264 45.8407L51.2814 47.5659C50.7544 47.8223 50.6685 48.5374 51.1197 48.9114ZM51.6228 19.7501C51.6228 19.75 51.6229 19.7499 51.623 19.7498C51.6702 19.6475 52.1544 18.6471 52.6568 18.8482C52.7728 18.8948 52.9434 19.1333 53.0626 19.5609C53.4322 20.8864 53.5936 23.6868 52.034 25.7629C51.9604 25.8606 51.9289 25.9865 51.9474 26.1076C52.0047 26.4843 51.7245 27.6648 51.253 28.1485C51.2516 28.15 51.2489 28.1485 51.2492 28.1464C51.3958 27.069 51.4791 25.9488 51.4966 24.8169C51.5011 24.5268 51.6799 24.2632 51.9409 24.1611L51.9713 24.1498C52.1843 24.0756 52.3134 23.8504 52.2716 23.6259C52.1109 22.7666 52.4658 21.7565 52.6916 21.2306C52.7399 21.1184 52.707 20.9936 52.61 20.9203C52.5624 20.8844 52.5076 20.8667 52.4527 20.8667C52.3945 20.8667 52.3364 20.8866 52.2872 20.9265C52.1101 21.0704 51.9171 21.206 51.713 21.3294C51.6388 21.3747 51.5506 21.3747 51.4765 21.3305C51.4028 21.2862 51.3617 21.2085 51.3667 21.1223C51.3884 20.7316 51.4747 20.2702 51.6228 19.7501ZM28.6785 12.7385C29.4908 10.4308 31.6486 4.30075 40.049 4.30075C43.5587 4.30075 46.3902 5.38629 48.4649 7.52738C50.4567 9.58227 51.0771 11.9472 51.2199 12.6231C51.5944 14.3956 51.0361 17.9105 50.67 19.8479C50.6071 20.1806 50.5481 20.4737 50.5026 20.6929C50.4422 20.9849 50.4253 21.2834 50.4526 21.5804C50.4636 21.6977 50.4738 21.8149 50.4802 21.896C50.8227 26.2903 50.0287 29.8713 49.3024 32.1016C49.0899 32.7543 48.8468 33.4011 48.5794 34.025L48.4965 34.2156C47.9333 35.4587 47.1003 36.3869 46.5004 36.9468C46.4759 36.9699 46.4497 36.9632 46.4366 36.957C46.4232 36.9508 46.4011 36.9353 46.4027 36.9013C46.4118 36.7098 46.417 36.5123 46.4184 36.2983C46.419 36.1908 46.3649 36.0824 46.2672 36.0376C46.1062 35.9637 45.936 36.0405 45.8833 36.1962C45.4443 37.495 44.251 40.5154 42.6549 40.5154C41.5009 40.5154 41.2323 39.9416 40.9728 39.3868C40.7632 38.939 40.5464 38.4759 39.8744 38.4759C39.1038 38.4759 38.8408 39.0129 38.5866 39.5323C38.312 40.0934 38.0525 40.6237 37.1573 40.6237C37.1452 40.6237 37.1328 40.6235 37.1205 40.6235C35.6115 40.5996 34.3394 37.4439 33.8623 36.0883C33.8214 35.9718 33.7174 35.8994 33.5993 35.8994C33.5814 35.8994 33.563 35.9011 33.5447 35.9045C33.4049 35.9304 33.3102 36.0478 33.3145 36.1897C33.3169 36.2731 33.3206 36.3616 33.3259 36.4548C33.3295 36.5182 33.2862 36.5464 33.2673 36.5558C33.2488 36.5649 33.2005 36.5818 33.1533 36.5407C32.4967 35.9691 31.6046 35.0665 31.0856 34.019C31.0855 34.019 31.0855 34.0189 31.0855 34.0189C30.2703 32.0944 29.7466 29.9327 29.5288 27.5936C29.307 25.2141 29.4539 23.1755 29.5609 22.1722C29.5843 21.9548 29.6119 21.7347 29.6432 21.5178C29.6756 21.2916 29.6548 21.0579 29.5829 20.8419C29.552 20.7489 29.5166 20.6402 29.4807 20.5262C29.0887 19.2782 27.8723 15.0279 28.6785 12.7385ZM47.4772 43.3607L45.2347 46.1845C45.0609 46.4034 44.727 46.386 44.5716 46.1537C43.8026 45.0033 42.7614 44.0003 41.5138 43.1091C41.3777 43.0119 41.4327 42.8015 41.5982 42.777C43.0636 42.5609 44.3501 41.819 45.0881 40.9104C45.0883 40.9101 45.0886 40.9099 45.0889 40.9098C45.674 40.6985 46.3289 40.4264 46.936 40.1691C47.3561 39.9909 47.8201 40.3045 47.8105 40.7607C47.8009 41.2147 47.7097 42.3602 47.6665 42.883C47.6521 43.0577 47.5863 43.2234 47.4772 43.3607ZM47.6409 45.4488C47.5886 46.393 47.5069 47.5595 47.3957 48.8799C47.3956 48.8811 47.3946 48.882 47.3933 48.882C46.4957 48.8206 45.6591 48.7649 45.516 48.7579C44.8878 48.7268 44.2559 48.7031 43.6234 48.6828C43.6218 48.6828 43.6208 48.6809 43.6217 48.6795C43.8132 48.3535 43.9846 48.0541 44.1021 47.8467C44.1851 47.7003 44.3841 47.674 44.5033 47.7928L44.5131 47.8026C44.8289 48.1185 45.353 48.0749 45.6123 47.7111L47.3076 45.3332C47.4144 45.1833 47.6511 45.265 47.6409 45.4488ZM35.319 46.4131C35.1813 46.6117 34.8926 46.6256 34.7328 46.4443L32.3739 43.77C32.1249 43.4877 31.9728 43.1322 31.9404 42.7571C31.8736 41.9835 31.8199 41.2462 31.7827 40.5651C31.764 40.2213 32.1347 39.9954 32.4316 40.1697C33.2336 40.6409 34.3217 41.1676 35.5818 41.5018C35.5822 41.5018 35.5824 41.502 35.5826 41.5021C36.1874 42.0011 37.1963 42.4611 38.1045 42.6563C38.3261 42.7039 38.4047 42.9786 38.2378 43.132C37.1014 44.176 36.1144 45.2655 35.319 46.4131ZM36.284 48.688C36.2847 48.6894 36.2837 48.691 36.2821 48.691C35.8956 48.7045 35.5097 48.7196 35.1251 48.737C34.8538 48.7493 33.658 48.8258 32.6109 48.8944C32.6097 48.8945 32.6088 48.8937 32.6086 48.8925C32.5148 47.8342 32.4169 46.527 32.3668 45.8409C32.3564 45.6975 32.5375 45.6273 32.6269 45.7397L34.2937 47.8356C34.6243 48.2513 35.2488 48.2715 35.6057 47.878L35.6106 47.8726C35.7084 47.7648 35.8848 47.7929 35.944 47.9259L36.284 48.688ZM27.9959 48.2548L24.6824 47.1897C24.3285 47.076 24.1702 46.6624 24.3602 46.3429C25.5662 44.3156 27.1516 42.354 29.4589 40.972C30.0958 40.5905 30.9102 41.0032 30.9676 41.7434C31.1137 43.6255 31.3713 45.9281 31.6624 48.1952C31.7149 48.6041 31.4118 48.9728 31.0007 49.0026C30.9702 49.0049 30.948 49.0065 30.9354 49.0076C30.0711 49.0799 29.2052 49.1649 28.3391 49.2581C28.3373 49.2582 28.3362 49.2564 28.3372 49.2548C28.5791 48.9059 28.4295 48.3941 27.9959 48.2548ZM31.5739 37.1779L31.5374 36.678C31.5372 36.6757 31.54 36.6747 31.5413 36.6765C32.1006 37.4707 32.7756 38.2669 33.596 39.0447C33.8113 39.2488 33.9968 39.4769 34.1529 39.7227C33.3251 39.3278 32.6751 38.8339 32.2277 38.4592C31.8448 38.1385 31.6102 37.676 31.5739 37.1779ZM37.2192 46.0523C37.8275 45.2264 38.5519 44.4874 39.3792 43.8255C39.7012 43.5678 40.1577 43.5536 40.4964 43.789C41.4138 44.4266 42.2591 45.1144 42.918 45.9518C43.2952 46.4312 43.3547 47.0885 43.0866 47.6364L42.5896 48.6523C42.5892 48.6531 42.5884 48.6536 42.5875 48.6536C41.7566 48.6347 40.9258 48.6241 40.1004 48.6241C39.2139 48.6241 38.321 48.6359 37.4285 48.6577C37.4276 48.6577 37.4268 48.6571 37.4265 48.6562L37.0152 47.5637C36.8248 47.0577 36.8985 46.4875 37.2192 46.0523ZM47.1575 38.8613C46.8958 38.9666 46.6349 39.0656 46.3747 39.1612C46.3678 39.1502 46.3647 39.1452 46.3629 39.1424C46.3619 39.1408 46.3586 39.1357 46.3499 39.1216C46.7577 38.7146 47.4126 37.9873 48.1193 36.9155C48.1206 36.9136 48.1236 36.9145 48.1234 36.9168L48.0437 37.6847C47.9891 38.2105 47.6481 38.6641 47.1575 38.8613ZM28.7506 21.251C28.7327 21.3099 28.6916 21.358 28.6346 21.3849C28.5677 21.4169 28.4922 21.4134 28.4278 21.3759C28.1847 21.2339 27.9578 21.0765 27.7533 20.9081C27.661 20.8325 27.5354 20.8298 27.4403 20.9016C27.3449 20.9734 27.3128 21.0952 27.3604 21.2049C27.6027 21.763 27.9786 22.8312 27.7727 23.7159C27.7297 23.9002 27.8417 24.0823 28.0274 24.1306C28.0393 24.1336 28.0516 24.1372 28.0641 24.1411C28.3198 24.2205 28.4965 24.472 28.4939 24.752C28.4848 25.729 28.5248 26.7079 28.6129 27.6615C28.627 27.8117 28.6415 27.9646 28.6572 28.1198C28.6602 28.1479 28.6439 28.1617 28.6296 28.1682C28.6154 28.1748 28.5944 28.1784 28.5719 28.1551C28.1093 27.6752 27.8254 26.4836 27.8832 26.1066C27.9025 25.9813 27.8641 25.8534 27.7882 25.7519C26.2371 23.6768 26.3988 20.8841 26.7679 19.5609C26.8872 19.1333 27.0575 18.8948 27.1736 18.8482C27.2189 18.83 27.2643 18.8216 27.309 18.8216C27.7807 18.8216 28.2001 19.7482 28.2032 19.7552C28.3435 20.1158 28.6588 20.9897 28.7506 21.251ZM6.44999 47.9345C6.44999 34.3078 14.8466 21.9907 27.4446 16.9748C27.5604 16.9287 27.6897 17.0026 27.7085 17.1259C27.7371 17.3144 27.7703 17.5336 27.796 17.7062C27.8152 17.8348 27.7025 17.9486 27.5752 17.9222C27.3301 17.8713 27.0808 17.8962 26.8312 17.9967C26.4039 18.1684 26.0761 18.624 25.8838 19.3143C25.4414 20.9002 25.3586 23.6377 26.7109 25.8011C26.8585 26.0373 26.9336 26.3115 26.9278 26.5934C26.914 27.2782 27.3561 28.2154 27.9098 28.7911C28.0423 28.9289 28.1943 29.0397 28.3614 29.1206C28.634 29.2523 28.8232 29.4987 28.8676 29.78C29.0934 31.2118 29.5035 33.0563 30.5187 35.0018C30.5188 35.002 30.5189 35.0023 30.519 35.0026L30.7073 37.5783C30.7664 38.3852 30.3689 39.1549 29.6821 39.5826C28.4378 40.3572 27.332 41.195 26.365 42.1217C26.3648 42.1218 26.3646 42.122 26.3644 42.1221C23.2053 43.3886 13.1269 47.4976 11.7199 48.9233C11.0543 49.5974 10.9603 50.2842 11.1472 50.9881C11.1472 50.9884 11.1472 50.9887 11.1472 50.9889C11.0233 51.6327 10.2874 55.3221 9.02846 59.0446C8.92359 59.3547 8.48345 59.3582 8.37359 59.0499C7.12499 55.5458 6.44999 51.7973 6.44999 47.9345ZM12.1881 66.5788C11.2496 65.1919 10.4132 63.7344 9.6894 62.2177C9.38093 61.5712 9.3464 60.8253 9.58849 60.1512C10.524 57.5462 11.2087 54.8588 11.6138 53.0863C11.6741 52.8224 12.024 52.766 12.165 52.997L12.1661 52.9989C12.6585 53.788 13.1989 54.6545 13.5164 55.6551C13.5647 55.8075 13.7911 55.768 13.7841 55.6084C13.7444 54.6963 13.561 53.4431 12.9242 52.5261C11.9363 51.1034 11.6006 50.3158 12.3555 49.5508C13.2935 48.6006 19.4748 45.9194 24.0177 44.0428C24.2809 43.9341 24.521 44.2347 24.3594 44.4692C23.815 45.2593 23.3461 46.1082 22.9562 47.029C22.8311 47.2742 22.9554 47.5729 23.2175 47.6572L26.53 48.7219C26.924 48.8529 26.867 49.4254 26.455 49.4769C23.9285 49.7921 21.4054 50.1929 18.9133 50.6789C18.3519 50.7884 17.831 51.0748 17.473 51.5209C17.0281 52.0753 16.8579 52.7735 16.997 53.4746L18.979 67.232C18.9793 67.2333 18.9783 67.2345 18.9769 67.2345C18.3302 67.2446 17.6834 67.2524 17.0367 67.2634C15.9032 67.2826 14.7698 67.3039 13.6364 67.3265C13.0583 67.338 12.5121 67.0577 12.1881 66.5788ZM19.9156 67.2205C19.9145 67.2205 19.9136 67.2198 19.9135 67.2187L17.8811 53.2849C17.7926 52.8419 17.9133 52.3903 18.212 52.0458C18.4201 51.8056 18.7257 51.636 19.0729 51.5683C26.0163 50.2133 33.0904 49.5262 40.0988 49.5262C47.108 49.5262 54.1829 50.2134 61.1267 51.5688C61.4728 51.6363 61.778 51.8058 61.986 52.0462C62.2843 52.391 62.4046 52.8426 62.3177 53.2759L60.0713 67.2146C60.0712 67.2157 60.0702 67.2166 60.0691 67.2165C53.3948 67.1181 46.7203 67.0625 40.0458 67.0665C33.3358 67.0653 26.6257 67.1206 19.9156 67.2205ZM61.8333 67.2424C61.3908 67.2361 61.0569 66.8385 61.127 66.4015L63.2025 53.4617C63.3499 52.7215 63.1407 51.9657 62.6145 51.3932C62.2678 51.0161 61.7949 50.7785 61.2922 50.6804C58.7941 50.1931 56.2633 49.791 53.73 49.4753C53.3243 49.4247 52.9413 49.2609 52.6265 49L52.3596 48.7787C52.0947 48.5591 52.1451 48.1393 52.4545 47.9887C52.4545 47.9887 55.114 46.958 55.7153 46.2578C55.9207 46.0187 55.8029 45.483 54.8917 44.1995C54.8399 44.1265 54.7851 44.0513 54.7278 43.9738C54.5274 43.7035 54.8353 43.3496 55.1291 43.5136C59.2786 45.8272 65.5064 49.1775 68.2634 50.0408C68.5875 50.1422 68.698 50.3117 68.7529 50.4304C69.144 51.2767 68.2677 53.3408 67.4202 55.3366C66.7457 56.9256 65.9995 58.6833 65.6266 60.3385C65.5772 60.5573 65.8797 60.6671 65.9793 60.4661C66.6337 59.1466 67.6973 56.9704 68.2428 55.6858C68.3557 55.4196 68.4667 55.158 68.5741 54.9009C68.7088 54.5786 69.1781 54.6217 69.2504 54.9635L70.2291 59.5837C70.3915 60.3507 70.3103 61.1525 69.98 61.8635C69.2394 63.4576 68.3754 64.9891 67.3995 66.4444C67.0279 66.9986 66.3964 67.3221 65.7292 67.3092C64.8378 67.2921 63.9464 67.2758 63.0551 67.2607C62.6478 67.2539 62.2406 67.2482 61.8333 67.2424Z" fill="#262A23"/>
<path d="M113.491 53.3395C112.438 53.7573 110.188 54.2097 108.393 54.2097C105.57 54.2097 103.429 53.4168 101.803 51.774C99.6822 49.6929 98.5536 46.0617 98.6115 41.8115C98.7269 32.8336 103.837 29.1123 109.077 29.1123C110.949 29.1123 112.335 29.4838 113.104 29.8575L112.274 33.9886C111.566 33.6304 110.638 33.4244 109.449 33.4244C106.198 33.4244 103.604 35.6756 103.604 42.0917C103.604 48.0137 105.908 50.1574 108.135 50.1574C108.572 50.1574 108.892 50.1111 109.09 50.0224V44.0899H106.88V40.1684H113.491V53.3395Z" fill="#BF3F49"/>
<path d="M117.097 29.333H121.901V49.9257H128.209V53.9914H117.097V29.333Z" fill="#BF3F49"/>
<path d="M144.548 41.2292C144.548 50.5274 141.244 54.2838 136.571 54.2838C130.993 54.2838 128.786 48.3713 128.786 41.6042C128.786 34.8681 131.462 29.04 136.923 29.04C142.868 29.04 144.548 35.5796 144.548 41.2292ZM133.778 41.6619C133.778 47.2547 134.816 50.1161 136.761 50.1161C138.793 50.1161 139.555 46.4468 139.555 41.4599C139.555 37.1078 138.893 33.2078 136.725 33.2078C134.816 33.2078 133.778 36.3711 133.778 41.6619Z" fill="#BF3F49"/>
<path d="M157.301 48.36L156.22 53.9914H151.567L156.923 29.333H162.664L167.458 53.9914H162.79L161.737 48.36H157.301ZM161.314 44.6405L160.491 39.4781C160.254 37.9797 159.924 35.5022 159.682 33.8729H159.593C159.329 35.51 158.963 38.0606 158.705 39.4859L157.804 44.6405H161.314Z" fill="white"/>
<path d="M181.376 53.631C180.686 53.9546 179.343 54.2107 177.677 54.2107C171.376 54.2107 168.365 49.0314 168.365 42.0335C168.365 32.7382 173.523 29.1133 178.303 29.1133C180.003 29.1133 181.171 29.456 181.654 29.7564L180.854 33.801C180.289 33.5372 179.675 33.3099 178.624 33.3099C175.889 33.3099 173.445 35.671 173.445 41.7697C173.445 47.6551 175.689 49.9565 178.597 49.9565C179.4 49.9565 180.322 49.7791 180.908 49.5941L181.376 53.631Z" fill="white"/>
<path d="M188.502 48.36L187.421 53.9914H182.768L188.123 29.333H193.865L198.658 53.9914H193.99L192.938 48.36H188.502ZM192.515 44.6405L191.691 39.4781C191.454 37.9797 191.125 35.5022 190.882 33.8729H190.794C190.53 35.51 190.164 38.0606 189.906 39.4859L189.004 44.6405H192.515Z" fill="white"/>
<path d="M201.361 29.6983C202.551 29.4189 204.325 29.2227 206.231 29.2227C209.336 29.2227 211.501 29.9522 213.084 31.4171C215.194 33.3211 216.284 36.5828 216.284 41.3549C216.284 46.3528 215.002 49.8835 212.863 51.8028C211.183 53.3957 208.755 54.1871 205.323 54.1871C203.802 54.1871 202.295 54.0351 201.361 53.9099V29.6983ZM206.137 50.1847C206.389 50.2579 206.742 50.2579 206.998 50.2579C209.313 50.2579 211.32 47.9973 211.32 41.1993C211.32 36.1313 210.004 33.0576 207.097 33.0576C206.757 33.0576 206.432 33.0731 206.137 33.175V50.1847Z" fill="white"/>
<path d="M229.745 43.1492H224.127V49.8314H230.465V53.9914H219.322V29.333H230.047V33.4931H224.127V39.1622H229.745V43.1492Z" fill="white"/>
<path d="M248.824 45.3692C248.698 43.007 248.544 39.8503 248.596 37.1908H248.5C248.059 39.8348 247.4 42.8693 246.94 44.7869L244.797 53.5875H241.395L239.349 44.926C238.873 42.931 238.22 39.8657 237.844 37.1908H237.756C237.685 39.8811 237.509 42.9915 237.384 45.4311L236.966 53.9914H232.854L234.625 29.333H239.686L241.653 38.2562C242.337 41.3835 242.959 44.1056 243.4 46.8939H243.481C243.857 44.1557 244.405 41.3779 245.053 38.2562L246.997 29.333H252.06L253.558 53.9914H249.265L248.824 45.3692Z" fill="white"/>
<path d="M259.683 53.9914V44.5584L254.26 29.333H259.377L261.056 35.2083C261.521 36.799 261.98 38.6381 262.35 40.4406H262.423C262.727 38.667 263.128 36.8723 263.579 35.0986L265.028 29.333H270L264.487 44.3699V53.9914H259.683Z" fill="white"/>
</svg>
