<svg width="269" height="66" viewBox="0 0 269 66" fill="none" xmlns="http://www.w3.org/2000/svg">
<g clip-path="url(#clip0)">
<path d="M110.422 50.3238C109.357 50.7466 107.081 51.2043 105.267 51.2043C102.412 51.2043 100.246 50.4021 98.603 48.7397C96.458 46.6338 95.3167 42.9594 95.3752 38.6587C95.4919 29.5741 100.659 25.8086 105.958 25.8086C107.852 25.8086 109.253 26.1845 110.03 26.5625L109.191 30.7428C108.475 30.3804 107.537 30.1719 106.335 30.1719C103.047 30.1719 100.424 32.4499 100.424 38.9423C100.424 44.9347 102.754 47.1039 105.006 47.1039C105.447 47.1039 105.771 47.057 105.971 46.9672V40.9643H103.736V36.9962H110.422V50.3238Z" fill="#BF3F49"/>
<path d="M114.068 26.0312H118.926V46.8689H125.305V50.9829H114.068V26.0312Z" fill="#BF3F49"/>
<path d="M141.828 38.0684C141.828 47.4772 138.487 51.2782 133.761 51.2782C128.12 51.2782 125.888 45.2954 125.888 38.4479C125.888 31.6317 128.595 25.7344 134.117 25.7344C140.129 25.7344 141.828 32.3516 141.828 38.0684ZM130.937 38.5064C130.937 44.1655 131.986 47.061 133.953 47.061C136.008 47.061 136.779 43.3481 136.779 38.3019C136.779 33.8981 136.109 29.9516 133.916 29.9516C131.986 29.9516 130.937 33.1525 130.937 38.5064Z" fill="#BF3F49"/>
<path d="M154.724 45.2845L153.63 50.9829H148.926L154.341 26.0312H160.147L164.994 50.9829H160.274L159.21 45.2845H154.724ZM158.782 41.5207L157.949 36.297C157.71 34.7807 157.377 32.2739 157.131 30.6252H157.042C156.775 32.2816 156.405 34.8626 156.144 36.3049L155.232 41.5207H158.782Z" fill="#262A23"/>
<path d="M179.069 50.6178C178.371 50.9453 177.013 51.2043 175.328 51.2043C168.956 51.2043 165.912 45.9635 165.912 38.8824C165.912 29.4766 171.128 25.8086 175.961 25.8086C177.68 25.8086 178.862 26.1553 179.35 26.4593L178.541 30.5521C177.97 30.2851 177.349 30.055 176.286 30.055C173.521 30.055 171.049 32.4442 171.049 38.6155C171.049 44.5708 173.318 46.8995 176.258 46.8995C177.071 46.8995 178.003 46.7201 178.596 46.5329L179.069 50.6178Z" fill="#262A23"/>
<path d="M186.275 45.2845L185.181 50.9829H180.477L185.892 26.0312H191.698L196.545 50.9829H191.825L190.761 45.2845H186.275ZM190.332 41.5207L189.5 36.297C189.26 34.7807 188.927 32.2739 188.682 30.6252H188.593C188.326 32.2816 187.956 34.8626 187.695 36.3049L186.783 41.5207H190.332Z" fill="#262A23"/>
<path d="M199.278 26.4012C200.482 26.1186 202.276 25.9199 204.203 25.9199C207.343 25.9199 209.533 26.6582 211.133 28.1405C213.267 30.0672 214.369 33.3676 214.369 38.1965C214.369 43.2538 213.072 46.8264 210.91 48.7687C209.21 50.3804 206.755 51.1812 203.284 51.1812C201.747 51.1812 200.223 51.0274 199.278 50.9007V26.4012ZM204.108 47.1313C204.363 47.2053 204.72 47.2053 204.979 47.2053C207.32 47.2053 209.349 44.9179 209.349 38.0391C209.349 32.9107 208.018 29.8005 205.078 29.8005C204.735 29.8005 204.406 29.8161 204.108 29.9193V47.1313Z" fill="#262A23"/>
<path d="M227.981 40.0117H222.3V46.7734H228.709V50.9829H217.441V26.0312H228.287V30.2408H222.3V35.9773H227.981V40.0117Z" fill="#262A23"/>
<path d="M247.273 42.2581C247.147 39.8679 246.991 36.6736 247.043 33.9826H246.946C246.5 36.6579 245.834 39.7284 245.368 41.6688L243.201 50.5741H239.762L237.692 41.8097C237.211 39.791 236.551 36.6892 236.171 33.9826H236.081C236.009 36.7049 235.832 39.8522 235.705 42.3208L235.283 50.9829H231.125L232.915 26.0312H238.033L240.022 35.0606C240.714 38.225 241.343 40.9795 241.789 43.8009H241.871C242.251 41.0301 242.805 38.2193 243.46 35.0606L245.426 26.0312H250.546L252.061 50.9829H247.72L247.273 42.2581Z" fill="#262A23"/>
<path d="M258.255 50.9829V41.4377L252.771 26.0312H257.946L259.644 31.9765C260.114 33.5861 260.577 35.447 260.952 37.2709H261.025C261.334 35.4762 261.739 33.6601 262.195 31.8654L263.66 26.0312H268.688L263.114 41.2469V50.9829H258.255Z" fill="#262A23"/>
<path d="M24.3003 12.6777L17.9711 15.8754L13.6691 19.1488L8.84375 24.462L5.95607 29.1407L3.99386 33.801L2.45506 40.6535L2.28125 46.8846L3.08909 52.4647L4.77079 58.6934L8.87097 64.9411H64.4236L67.6076 58.4671L69.9363 52.1666L70.7437 42.7748L69.2962 34.8434L66.7497 28.6563L63.1248 23.1785L58.7039 18.6379L54.9097 15.3724L48.5119 13.0399L24.3003 12.6777Z" fill="#008ACA"/>
<path d="M70.0436 48.964C70.2583 47.6222 70.1288 46.4622 69.6493 45.4245C69.0444 44.1156 67.9287 43.1494 66.5068 42.7036C63.8124 41.8595 55.5806 37.3675 50.4766 34.4271C50.0709 34.0541 49.68 33.7187 49.3071 33.4237L49.3814 32.6352C50.0381 31.2079 50.5624 29.6841 50.9466 28.0863C51.0409 28.0018 51.1322 27.9135 51.2206 27.8216C52.2237 26.7788 52.9436 25.2266 53.126 23.8035C54.5908 21.1552 54.7167 18.0998 54.3129 15.8751L50.1359 13.279C50.1359 13.279 49.4293 13.0972 48.393 12.8319C48.245 12.794 48.6333 13.3406 48.0341 15.5668C47.9496 15.8806 47.9517 19.1952 47.8616 19.5375C47.7297 20.0378 47.8309 23.1305 47.6891 23.6807C47.6014 24.0209 47.4347 26.2603 47.344 26.6156C47.1939 27.203 46.2925 29.2779 46.1363 29.8957C45.9858 30.4908 45.6 32.2196 45.4462 32.8305C45.3265 33.3062 45.3941 35.4593 45.2737 35.938C45.0865 36.6819 47.3567 35.8952 47.1714 36.6285C47.0341 37.1718 49.4538 38.7864 49.9318 39.0455C54.0724 41.2897 56.0209 42.1494 55.7976 41.8076L59.4207 43.8793C62.2376 45.3784 64.2212 45.8764 65.9765 46.6415C66.149 47.332 66.3216 48.5405 66.3216 50.2668L67.1842 53.8922L68.0468 56.9997L69.3719 54.3664L70.2414 49.8979L70.0436 48.964Z" fill="#037EA5"/>
<path d="M10.8031 65.0425H12.6013C13.572 65.0425 16.7834 64.9171 18.2235 64.9171C20.2332 64.9171 24.6919 65.0425 25.7084 65.0425H27.8571C28.7813 65.0425 32.3697 64.9484 33.7099 64.9484C34.6424 64.9484 36.8894 65.0425 37.3853 65.0425H39.534C40.1023 65.0425 43.3268 64.9955 44.1623 64.9955C45.455 64.9955 48.4008 65.0425 49.0617 65.0425H53.0756C53.3807 65.0425 54.4854 65.0425 54.7888 65.0425H56.6828C57.1964 65.0425 58.9052 65.0425 59.4191 65.0425H61.3139C61.4582 65.0425 62.0011 65.0425 62.1375 65.0425H63.8909L65.2447 63.3708L67.9033 58.1522L66.2024 50.0427L66.0023 46.6637L58.8486 43.3474L52.0952 39.6413L47.6929 37.3608L45.3416 35.9512L27.8576 36.3267L27.0322 36.5519L24.7309 37.9285L21.4293 40.2562L15.9765 42.3337L9.27302 45.4874L8.17244 46.6637V48.0904L7.87227 49.392L5.32098 57.952L5.0708 58.5026L8.86124 64.974C9.66397 65.002 10.5705 65.0425 10.8031 65.0425Z" fill="#283F6E"/>
<path d="M59.1183 55.3223C59.1183 55.3223 58.8225 62.3563 61.8327 64.8703C62.182 65.1621 57.0547 64.8698 57.0547 64.8698L57.3016 61.5764L59.1183 55.3223Z" fill="#1F3456"/>
<path d="M25.3814 16.6035L24.7307 13.4498L24.8559 8.81942L26.5817 5.51554L29.6083 2.36184L32.96 0.885124L37.5124 0.234375L41.1392 0.96018L44.0908 2.43696L46.5723 5.06499L48.343 7.86831L48.5681 11.3974L48.0567 15.5773L49.6186 14.8765L50.244 15.7025L50.5191 18.1303L50.1939 20.358L48.7932 22.7858V24.5629L47.5926 25.5641L46.7922 28.2171L45.2393 32.3635L43.3454 34.4494L42.3804 35.6509L40.0986 37.9536L36.0617 38.1788L32.3004 37.0892L30.0085 34.4745L27.4572 31.1453L26.0064 25.9144L25.0362 25.2637L24.3001 24.2375V22.6606L22.9799 19.507L22.7798 16.5785L23.5301 15.0517L24.5057 15.1519L25.3814 16.6035Z" fill="#FFCDAF"/>
<path d="M50.0499 15.3716L48.406 14.8761L48.556 9.88276L47.543 6.31605L44.654 2.82446L41.5774 1.17251L37.1501 0.271484L33.905 0.459201L32.5049 1.08542C39.5165 1.82598 44.8901 7.83301 40.0358 17.2221C40.0358 17.2221 38.5759 18.0673 37.3753 17.9922C37.3753 17.9922 37.0751 19.0059 37.9755 19.5316C37.9755 19.5316 39.4741 28.5186 35.667 28.7181L33.905 28.4446L33.361 28.011C33.361 28.011 33.8897 29.4507 34.7283 29.4432C34.7283 29.4432 35.3307 30.3367 36.6318 30.3745C36.9749 30.3845 35.9326 31.4855 36.3745 31.3445C36.3745 31.3445 38.5319 31.6422 36.8116 33.8002L36.8128 33.8065C36.0879 33.7764 35.3037 33.6349 34.5014 33.3041C34.3938 33.2597 34.2993 33.3905 34.3783 33.476C34.7062 33.831 36.7929 33.7351 35.4366 34.8426C35.0355 35.1001 35.2109 35.4823 35.6054 35.4154C35.7829 35.3852 35.9568 35.3736 36.1307 35.359C36.4422 35.3079 36.8264 35.5112 37.1475 35.5412L38.2505 38.0247L40.9519 37.3604L41.7386 36.3998L44.4536 36.151L45.3419 35.0247L45.015 31.7866L46.4174 29.1803L47.5055 25.3884L48.1536 25.0961L49.0535 22.6853L50.3624 19.2062L50.0499 15.3716Z" fill="#EBBAA1"/>
<path d="M35.5298 21.5138C35.5298 21.5138 35.3802 20.8684 35.4052 20.2578C35.4052 20.2578 34.7823 20.6412 34.4761 21.3591C33.9599 20.9306 32.977 20.4136 31.8185 20.4434C30.4667 20.4783 29.5225 21.1033 28.9848 21.3226C28.8492 21.3779 28.8504 21.5692 28.9865 21.6229C29.7485 21.9234 31.4789 22.5021 33.2318 22.371C33.2318 22.371 33.693 22.3903 34.2571 22.3673C34.5147 22.6258 34.893 23.2018 34.6863 24.2496C34.4228 25.5861 33.1207 25.8894 33.0028 27.1361L32.966 27.193C32.8894 27.2937 32.8057 27.3836 32.7025 27.4596C32.5023 27.6143 32.2646 27.736 32.0236 27.8627C31.5397 28.1124 31.0197 28.3853 30.5925 28.7919C30.1624 29.1925 29.8602 29.7267 29.7595 30.2716C29.6551 30.8171 29.7088 31.3615 29.8755 31.8632C29.9441 31.3378 30.02 30.8315 30.1924 30.3678C30.3605 29.9029 30.6334 29.4977 30.9966 29.1545C31.3584 28.8076 31.8097 28.5267 32.2666 28.2036C32.4919 28.0383 32.7251 27.8619 32.907 27.6303C32.9424 27.5864 32.9734 27.539 33.0019 27.4904C33.0078 27.5678 33.0164 27.6475 33.0308 27.7318C33.2244 28.8716 33.6043 27.7318 33.6043 27.7318C33.6043 27.7318 33.4032 25.5989 35.5298 25.514L35.4052 23.2516L35.5298 21.5138Z" fill="#EBBAA1"/>
<path d="M27.9546 19.7981C27.8418 19.8462 27.738 19.7123 27.8131 19.6153C28.253 19.0474 29.2987 18.0245 31.0617 18.1398C32.7731 18.2518 32.8707 18.8255 34.2676 19.097C34.6481 19.1709 34.7784 19.6618 34.4726 19.9002C34.2983 20.036 33.9443 20.2421 33.6098 20.2425C32.4486 20.2438 31.7943 19.4297 30.6777 19.3236C29.9392 19.2536 28.9939 19.3549 27.9546 19.7981Z" fill="#EBBAA1"/>
<path d="M32.4134 27.3125C32.4219 27.4294 32.4124 27.5548 32.3667 27.6726C32.322 27.7893 32.2532 27.9013 32.1687 27.9941C32.0003 28.184 31.7945 28.3199 31.596 28.4466C31.1946 28.6929 30.8013 28.9022 30.4758 29.1783C30.1495 29.451 29.8921 29.7871 29.7155 30.1858C29.5357 30.5829 29.4313 31.0268 29.3314 31.4884C29.2364 31.0266 29.2377 30.5371 29.3687 30.0609C29.4966 29.5848 29.7888 29.1366 30.1747 28.8189C30.5588 28.4955 31.0077 28.2997 31.4252 28.1212C31.6333 28.0302 31.8382 27.9433 32.0153 27.8237C32.1063 27.7654 32.1823 27.693 32.2534 27.6103L32.3023 27.544C32.3182 27.5212 32.3288 27.4958 32.3431 27.4713C32.3755 27.423 32.3876 27.3672 32.4134 27.3125Z" fill="#262A23"/>
<path d="M40.598 27.3125C40.6239 27.3672 40.6359 27.423 40.6683 27.4713C40.6827 27.4958 40.6933 27.5212 40.7092 27.544L40.758 27.6102C40.8291 27.693 40.9052 27.7654 40.9961 27.8237C41.1732 27.9433 41.3782 28.0302 41.5863 28.1211C42.0038 28.2997 42.4527 28.4956 42.8368 28.8189C43.2227 29.1366 43.5148 29.5848 43.6428 30.0609C43.7737 30.5371 43.775 31.0266 43.68 31.4884C43.5801 31.0268 43.4757 30.5829 43.2959 30.1858C43.1193 29.787 42.8619 29.451 42.5356 29.1783C42.2102 28.9022 41.8168 28.6929 41.4154 28.4466C41.217 28.3199 41.011 28.184 40.8427 27.9941C40.7581 27.9013 40.6894 27.7893 40.6448 27.6726C40.5991 27.5548 40.5896 27.4294 40.598 27.3125Z" fill="#262A23"/>
<path d="M36.6407 29.8332C35.9133 29.8332 35.4966 29.4782 35.2207 29.2432C35.0802 29.1238 35.0106 29.0692 34.9613 29.0545L34.9504 29.0513L34.9391 29.051C33.9718 29.0252 33.2852 28.6047 33.0553 27.8977C32.9265 27.5011 33.2187 27.0132 33.4864 26.6735C33.5142 26.6382 33.5476 26.6309 33.5707 26.6309C33.6013 26.6309 33.6316 26.644 33.6521 26.6659C33.6714 26.6868 33.6802 26.7134 33.6776 26.7448C33.6468 27.1533 33.6795 27.4659 33.7749 27.6737C33.9523 28.0609 34.3772 28.2832 34.9712 28.2996C35.2843 28.3083 35.4998 28.4917 35.708 28.6693C35.9452 28.8712 36.1905 29.0801 36.6409 29.0801C37.0678 29.0795 37.2816 28.9092 37.4884 28.7446C37.667 28.6022 37.8693 28.4408 38.1587 28.4408L38.2311 28.4417C38.7268 28.4417 39.1212 28.2414 39.4041 27.8464C39.5433 27.6522 39.6275 27.3131 39.6546 26.8386C39.6585 26.7706 39.7128 26.7398 39.7617 26.7398C39.7855 26.7398 39.8297 26.7473 39.856 26.7984C40.0658 27.2025 40.2768 27.7661 40.0918 28.1559C39.7832 28.8069 39.0939 29.1954 38.2483 29.1954C38.2249 29.1954 38.1552 29.1939 38.1552 29.1939L38.1356 29.2039C38.0969 29.2238 38.0369 29.2705 37.9626 29.3295C37.7235 29.5202 37.3321 29.8324 36.6437 29.8332H36.6407Z" fill="#262A23"/>
<path d="M35.2002 26.5451C35.2961 26.0562 35.3437 25.5898 35.3491 25.1203C35.3565 24.6516 35.3268 24.1827 35.2967 23.7056C35.2666 23.2289 35.2357 22.743 35.2484 22.249C35.2632 21.7574 35.3187 21.2494 35.5066 20.7852C35.5454 21.2813 35.6102 21.7493 35.6777 22.2254C35.7441 22.7002 35.8121 23.1798 35.8424 23.6715C35.8728 24.162 35.8665 24.6666 35.7755 25.1639C35.6842 25.6589 35.5045 26.1486 35.2002 26.5451Z" fill="#262A23"/>
<path d="M27.8617 19.1261C27.748 19.1699 27.6405 19.0413 27.7152 18.9507C28.1528 18.4194 29.1439 17.7021 30.9352 17.8394C32.6742 17.9727 32.7825 18.518 34.2047 18.7974C34.5922 18.8736 34.7863 19.1054 34.4796 19.3264C34.3048 19.4524 34.0608 19.5441 33.7212 19.5391C32.5426 19.5219 31.98 18.9157 30.8448 18.7974C30.0941 18.7193 28.9097 18.7226 27.8617 19.1261Z" fill="#262A23"/>
<path d="M27.8579 32.3242V35.4997L31.935 37.3598L29.9311 34.048L27.8579 32.3242Z" fill="#EBBAA1"/>
<path d="M25.6067 17.2546L24.5061 15.002L23.2192 15.2522L22.7802 16.9042L22.6802 19.4571L24.4811 22.7861L24.3005 24.5882L25.9068 25.5143L25.5566 22.9613L25.6567 19.2069L25.6067 17.2546Z" fill="#EBBAA1"/>
<path d="M27.8579 35.9512L28.8646 46.1631L33.3364 45.8221L32.6839 43.5985L33.1857 42.5839L36.2956 39.0167L31.7099 37.1526L27.8579 35.9512Z" fill="white"/>
<path d="M32.5658 1.33594C32.5658 1.33594 24.6667 5.58459 25.3816 14.441L24.7309 13.4497L24.5244 10.8368L25.575 7.28267L28.2822 3.47815L30.8406 1.33594H32.5658Z" fill="white"/>
<path d="M13.9566 50.6543C13.8761 52.2029 14.6056 61.8459 13.1608 63.573C12.9386 63.8386 12.2998 64.3349 11.6492 64.8108C10.8055 65.4279 15.9446 65.1126 15.9446 65.1126L15.427 59.0703L13.9566 50.6543Z" fill="#1F3456"/>
<path d="M27.3509 37.1428C27.3509 37.1428 23.0362 39.6958 21.0852 44.3512L20.4849 43.6616L21.648 41.1261L23.524 38.8323L26.7131 36.9551L27.3509 37.1428Z" fill="white"/>
<path d="M21.5353 40.6528C21.5353 40.6528 9.58574 45.7313 9.15392 46.9789C8.72197 48.2266 9.15392 49.0814 9.15392 49.0814L8.02832 47.6547L8.39341 46.4271L10.2419 45.0266L14.219 43.0341L20.4847 40.2559L21.2351 40.2961L21.5353 40.6528Z" fill="white"/>
<path d="M28.6509 20.8907L30.6159 20.248L32.7709 20.5964L33.0309 21.3963L31.8365 21.5037L30.2483 21.5165L28.6509 20.8907Z" fill="white"/>
<path d="M33.987 21.3645C33.5908 20.9367 32.552 19.9925 31.1649 20.0754C29.8152 20.1562 28.9042 20.6099 28.3743 20.8474C28.2407 20.9072 28.2483 21.0984 28.3862 21.1475C29.1579 21.4219 30.9069 21.9415 32.6544 21.751L32.0558 22.0779C31.994 22.1117 32.0242 22.2059 32.0939 22.1966C32.5109 22.141 33.2665 22.0043 33.9259 21.6915C34.0516 21.6318 34.0816 21.4666 33.987 21.3645ZM29.8475 20.7384C29.9862 20.6714 30.2202 20.5713 30.512 20.4971C30.5587 20.4852 30.6015 20.5272 30.5913 20.5743C30.5762 20.6437 30.5693 20.716 30.5719 20.7902C30.5773 20.9411 30.6206 21.0815 30.692 21.2031C30.7064 21.2277 30.6856 21.2582 30.658 21.2511C30.3756 21.1785 30.0969 21.0674 29.8403 20.902C29.7784 20.8621 29.7813 20.7704 29.8475 20.7384ZM32.8973 21.2264C32.7505 21.2607 32.5059 21.3094 32.2075 21.3402C32.169 21.3443 32.144 21.3008 32.1665 21.2693C32.2755 21.1169 32.3369 20.9288 32.3297 20.7271C32.3286 20.6966 32.3244 20.667 32.3202 20.6373C32.53 20.7404 32.7377 20.8814 32.9368 21.0722C32.989 21.1221 32.9675 21.2099 32.8973 21.2264Z" fill="#262A23"/>
<path d="M44.5209 20.8808L42.5533 20.2461L40.3998 20.6031L40.1431 21.4041L41.3378 21.5067L42.9261 21.5131L44.5209 20.8808Z" fill="white"/>
<path d="M39.3367 21.7021C39.9973 22.0122 40.7535 22.1458 41.1707 22.1996C41.2404 22.2086 41.2702 22.1143 41.2084 22.0808L40.6084 21.7564C42.3566 21.9397 44.1035 21.413 44.8741 21.1355C45.0118 21.0859 45.0187 20.8946 44.8848 20.8353C44.354 20.6 43.4411 20.15 42.091 20.0748C40.7037 19.9975 39.6687 20.946 39.2742 21.3754C39.18 21.4778 39.2108 21.6429 39.3367 21.7021ZM43.419 20.8959C43.1631 21.0624 42.8848 21.1746 42.6027 21.2483C42.5752 21.2555 42.5543 21.2251 42.5686 21.2005C42.6394 21.0786 42.6822 20.9379 42.687 20.7871C42.6893 20.7129 42.682 20.6406 42.6667 20.5713C42.6562 20.5241 42.6989 20.4821 42.7457 20.4938C43.0378 20.5667 43.2722 20.6659 43.4111 20.7323C43.4775 20.7641 43.4808 20.8558 43.419 20.8959ZM40.3232 21.0787C40.5216 20.887 40.7287 20.7452 40.9381 20.6414C40.9341 20.671 40.93 20.7006 40.9289 20.7311C40.9225 20.9329 40.9848 21.1207 41.0943 21.2727C41.1169 21.3041 41.0922 21.3476 41.0536 21.3438C40.7551 21.3141 40.5103 21.2665 40.3634 21.2327C40.2931 21.2166 40.2713 21.1289 40.3232 21.0787Z" fill="#262A23"/>
<path d="M36.712 31.7316C38.4765 31.7316 39.2303 32.0032 40.0445 32.0032C40.7382 32.0032 41.4217 31.631 41.4217 31.631C41.5726 31.7366 41.8842 31.5505 41.9294 31.3695C41.9747 31.1884 41.3866 30.6904 41.3414 30.9319C41.2961 31.1733 40.7834 31.4902 40.4215 31.4902C40.0596 31.4902 38.9991 30.6653 38.2501 30.6301C37.9086 30.614 37.2969 30.7667 36.9569 30.8609C36.7966 30.9053 36.6275 30.9053 36.4672 30.8609C36.1272 30.7667 35.5155 30.614 35.174 30.6301C34.425 30.6653 33.3645 31.4902 33.0026 31.4902C32.6407 31.4902 32.128 31.1733 32.0828 30.9319C32.0375 30.6904 31.4494 31.1884 31.4947 31.3695C31.5399 31.5505 31.8515 31.7366 32.0023 31.631C32.0023 31.631 32.6859 32.0032 33.3795 32.0032C34.1939 32.0032 34.9476 31.7316 36.712 31.7316Z" fill="#262A23"/>
<path d="M39.7939 32.6254C39.8596 32.5516 39.7779 32.442 39.6871 32.4807C38.6661 32.9148 37.6707 33.0447 36.7885 33.0204C35.9262 33.0442 34.9557 32.9206 33.959 32.5096C33.8508 32.4649 33.7556 32.5965 33.8351 32.6825C34.1651 33.0396 34.767 33.5707 35.6221 33.8505C35.5693 33.8678 35.516 33.8831 35.4645 33.9038C35.2831 33.9632 35.1162 34.0605 34.9519 34.1526C34.5484 34.4116 34.6522 34.4707 35.0491 34.4033C35.2276 34.373 35.3976 34.3352 35.5725 34.3205C35.9157 34.2643 36.2569 34.25 36.5958 34.2421C36.9358 34.2354 37.2755 34.2623 37.6198 34.3059C37.8727 34.3376 38.1255 34.3807 38.3872 34.4351C38.4723 34.4527 38.5219 34.3427 38.4538 34.2886C38.2483 34.1256 38.0114 34.0021 37.7656 33.907C38.7706 33.6352 39.4557 33.0049 39.7939 32.6254Z" fill="#262A23"/>
<path d="M22.6802 46.8831L20.302 46.3724C19.8107 46.2669 19.5568 45.7204 19.7928 45.2766L20.485 43.9746L21.3974 44.35L24.162 45.4289L23.6367 46.4262L22.6802 46.8831Z" fill="#1F3456"/>
<path d="M35.8696 39.9832C34.9514 40.7182 34.1476 41.5388 33.4726 42.4559C33.1176 42.9382 33.0359 43.57 33.2467 44.1306L33.9483 45.996L39.1387 45.9309L39.9795 44.2112C40.2764 43.6041 40.2105 42.8759 39.7929 42.3446C39.0619 41.4146 38.1237 40.6507 37.1054 39.9427C36.7307 39.6823 36.2257 39.698 35.8696 39.9832Z" fill="#BF3F49"/>
<path d="M7.604 50.2933C7.604 50.2933 9.15431 51.4544 9.49192 54.3229C9.82965 57.1915 10.505 52.6417 9.71707 51.0308C8.92915 49.4199 8.17879 49.082 8.17879 49.082L7.604 50.2933Z" fill="#1F3456"/>
<path d="M36.4795 40.1014C36.4795 40.1014 38.6729 42.52 38.5219 43.8148C38.3709 45.1096 36.82 45.996 36.82 45.996H39.5165L40.7647 43.5559L39.2336 41.6569C39.2336 41.6569 37.7887 40.324 37.7024 40.2567C37.6162 40.1894 36.4795 39.7578 36.4795 39.7578V40.1014Z" fill="#A33446"/>
<path d="M45.399 19.1261C45.5127 19.1699 45.6202 19.0413 45.5455 18.9507C45.1079 18.4194 44.1168 17.7021 42.3255 17.8394C40.5865 17.9727 40.4782 18.518 39.056 18.7974C38.6685 18.8736 38.4744 19.1054 38.7811 19.3264C38.9558 19.4524 39.1999 19.5441 39.5395 19.5391C40.7181 19.5219 41.2807 18.9157 42.4159 18.7974C43.1666 18.7193 44.351 18.7226 45.399 19.1261Z" fill="#262A23"/>
<path d="M17.8783 64.7445C19.8881 64.7445 24.3468 64.87 25.3633 64.87H27.512C28.4362 64.87 32.0246 64.7759 33.3648 64.7759C34.2973 64.7759 36.5443 64.87 37.0402 64.87H39.1889C39.7573 64.87 42.9817 64.8229 43.8172 64.8229C45.1099 64.8229 48.0557 64.87 48.7166 64.87H52.7305C53.0356 64.87 54.1403 64.87 54.4437 64.87H56.3377C56.5524 64.87 56.9764 64.87 57.4341 64.87L59.4783 51.0772L59.7919 49.1948L57.9108 47.8223L44.9781 46.1948L34.1257 45.8223L26.559 46.1948L18.8378 47L14.6477 48.4889L14.0967 50.1359L16.0782 64.775C16.7721 64.7575 17.4165 64.7445 17.8783 64.7445Z" fill="#DFDFDB"/>
<path d="M39.6923 45.735L44.4845 46.1813L44.8662 41.9332L45.3415 35.9512L41.6646 36.5519L37.2373 39.205L41.0196 43.6616L39.6923 45.735Z" fill="white"/>
<path d="M43.2983 46.3945C43.2983 46.3945 53.6503 48.2916 54.2056 53.3818C54.6838 57.7646 52.8837 62.5483 43.1309 64.9843C40.9226 65.5357 57.2759 64.8461 57.2759 64.8461L59.3591 51.0442L59.2023 48.8187L56.5374 47.3579L47.9975 46.5568L43.2983 46.3945Z" fill="#C3C3C3"/>
<path d="M43.6784 46.1637C43.6784 46.1637 15.5872 47.5024 14.0968 50.1364L13.9565 49.0823L14.782 48.2818L17.2069 47.6488L22.5552 46.9583L31.0951 46.0951L39.1763 45.9961L43.6784 46.1637Z" fill="white"/>
<path d="M34.0308 57.3365C34.0308 58.7338 35.3548 59.8664 36.9881 59.8664C38.6214 59.8664 39.9455 58.7338 39.9455 57.3365C39.9455 55.9393 38.6214 54.8066 36.9881 54.8066C35.3548 54.8066 34.0308 55.9393 34.0308 57.3365Z" fill="#C3C3C3"/>
<path d="M49.2414 46.1228L52.2022 45.3373C52.6935 45.2318 52.9474 44.6853 52.7114 44.2414L52.0191 42.9395L51.1068 43.3149L48.5513 44.5691V45.4323L49.2414 46.1228Z" fill="#1F3456"/>
<path d="M37.0364 60.3797C35.2459 60.3797 33.705 59.1741 33.4521 57.5755C33.3201 56.7405 33.71 56.0759 34.0603 55.6655C34.7755 54.8275 35.9995 54.2423 37.0366 54.2422C38.0737 54.2422 39.2974 54.8273 40.0127 55.6652C40.3631 56.0757 40.7532 56.7404 40.6211 57.5756C40.368 59.1741 38.8269 60.3797 37.0364 60.3797ZM37.0366 55.0614C36.2383 55.0614 35.4981 55.3725 35.0058 55.9152C34.6063 56.3554 34.4155 56.899 34.4683 57.4459C34.5848 58.6515 35.689 59.5606 37.0364 59.5606C38.384 59.5606 39.4882 58.6515 39.605 57.4459C39.6578 56.899 39.467 56.3554 39.0675 55.9152C38.5751 55.3726 37.8349 55.0614 37.0366 55.0614Z" fill="#262A23"/>
<path d="M72.7449 64.5188C70.3095 64.4447 67.8741 64.384 65.4386 64.3314C65.4368 64.3314 65.4359 64.3294 65.4368 64.3279C69.3651 58.5373 71.4338 51.8023 71.4338 44.7338C71.4338 37.4551 69.2211 30.4778 65.0347 24.5562C61.0143 18.8691 55.4819 14.5611 49.0186 12.0761C49.0177 12.0757 49.0172 12.0748 49.0172 12.0738C49.1194 10.7343 49.0922 9.67981 48.9336 8.92871C48.7768 8.18575 48.0955 5.58665 45.916 3.33644C43.6442 0.990398 40.5667 -0.199219 36.7692 -0.199219C32.9835 -0.199219 29.9376 0.955525 27.7159 3.23304C25.9472 5.04597 25.0339 7.22947 24.436 8.92916C24.1535 9.7321 24.0536 10.7601 24.135 11.9998C24.1351 12.0008 24.1345 12.0017 24.1337 12.002C17.6262 14.4593 12.051 18.7591 7.99202 24.4598C3.76103 30.4022 1.52464 37.4128 1.52464 44.7338C1.52464 51.8146 3.59406 58.5505 7.52877 64.3426C7.52974 64.344 7.52877 64.346 7.52703 64.346C5.3059 64.3953 2.4256 64.4699 0.204473 64.537C-0.317038 64.5528 -0.31678 65.3282 0.204795 65.3439C4.44187 65.472 9.33805 65.5443 13.5751 65.6162C21.3054 65.7469 29.0358 65.8162 36.7661 65.8148C44.4963 65.8195 52.2267 65.7484 59.957 65.6189C64.2193 65.5468 68.4816 65.4554 72.7439 65.3256C73.2651 65.3097 73.266 64.5347 72.7449 64.5188ZM48.8494 13.6894C48.8616 13.5941 48.9609 13.5362 49.0501 13.5722C61.6512 18.6688 70.0537 31.0732 70.0537 44.7338C70.0537 48.2285 69.5002 51.6382 68.4682 54.863C68.353 55.2233 67.8364 55.1997 67.7581 54.8296L66.6289 49.495C66.5642 49.1903 66.5527 48.8751 66.61 48.5691C66.735 47.9031 66.7273 47.328 66.5172 46.8731C66.3207 46.4475 65.9702 46.1532 65.4756 45.9981C61.4362 44.7325 49.2775 37.7216 48.411 37.2206C48.4109 37.2204 48.4108 37.2204 48.4107 37.2203C47.8406 36.6796 47.2719 36.1913 46.7538 35.8192C46.0983 35.3483 45.7328 34.5725 45.8086 33.7686L46.0035 31.7006C46.0036 31.7003 46.0036 31.7001 46.0037 31.6999C46.7089 30.2779 47.3686 28.5052 47.7942 26.3534C47.8449 26.0961 48.0138 25.8796 48.246 25.7742C48.428 25.6914 48.5924 25.5743 48.7345 25.4266C49.3539 24.7825 49.7466 23.6732 49.7199 23.0691C49.7113 22.8785 49.7653 22.6876 49.8757 22.5169C51.2832 20.3444 51.223 17.4701 50.7767 15.8686C50.5827 15.1725 50.2526 14.713 49.8219 14.5397C49.4937 14.4077 49.1658 14.4054 48.847 14.5329C48.8105 14.5478 48.7824 14.5306 48.7724 14.5223C48.7622 14.5143 48.7388 14.491 48.7446 14.4519C48.783 14.1904 48.8177 13.9365 48.8494 13.6894ZM47.9273 45.7191L48.2948 46.0239C48.2965 46.0254 48.2954 46.0281 48.2932 46.0278C47.717 45.9678 47.1411 45.9108 46.566 45.86C46.4565 45.8503 46.1628 45.8286 45.7772 45.8011C45.4214 45.7758 45.154 45.4647 45.1814 45.1089C45.4364 41.7942 45.5544 39.0485 45.604 37.4089C45.6208 36.8532 46.2655 36.5562 46.6971 36.9064C47.1847 37.302 47.78 37.8403 48.4774 38.5492C50.3435 40.4466 51.456 42.0313 51.6646 42.6194C51.6649 42.6205 51.6644 42.6216 51.6634 42.6222L48.0903 44.3621C47.5593 44.6207 47.4726 45.3419 47.9273 45.7191ZM48.4345 16.3082C48.4345 16.3081 48.4345 16.308 48.4345 16.3079C48.4823 16.2048 48.9703 15.1957 49.4767 15.3986C49.5936 15.4456 49.7654 15.6861 49.8855 16.1173C50.2581 17.4542 50.4208 20.2786 48.8489 22.3724C48.7747 22.4711 48.7429 22.598 48.7615 22.7201C48.8193 23.1 48.5369 24.2907 48.0618 24.7784C48.0603 24.78 48.0576 24.7785 48.0579 24.7764C48.2056 23.6897 48.2896 22.56 48.3072 21.4184C48.3117 21.1258 48.492 20.8599 48.755 20.7569L48.7857 20.7456C49.0003 20.6708 49.1305 20.4436 49.0883 20.2172C48.9264 19.3505 49.2841 18.3317 49.5117 17.8014C49.5604 17.6882 49.5272 17.5623 49.4294 17.4883C49.3815 17.4522 49.3262 17.4343 49.2708 17.4343C49.2123 17.4343 49.1537 17.4544 49.1041 17.4947C48.9255 17.6398 48.731 17.7765 48.5253 17.901C48.4506 17.9466 48.3617 17.9467 48.2869 17.9021C48.2128 17.8574 48.1714 17.7791 48.1763 17.6921C48.1982 17.2981 48.2852 16.8327 48.4345 16.3082ZM25.3089 9.23658C26.1277 6.90911 28.3025 0.726593 36.7692 0.726593C40.3066 0.726593 43.1605 1.82141 45.2516 3.98084C47.2591 6.05331 47.8845 8.43856 48.0284 9.12024C48.4058 10.9078 47.8431 14.4528 47.4742 16.4069C47.4107 16.7424 47.3513 17.038 47.3055 17.2591C47.2445 17.5536 47.2275 17.8546 47.255 18.1541C47.266 18.2724 47.2764 18.3906 47.2828 18.4724C47.628 22.9043 46.8277 26.516 46.0957 28.7654C45.8815 29.4237 45.6366 30.0761 45.367 30.7053L45.2834 30.8975C44.7158 32.1513 43.8762 33.0874 43.2716 33.652C43.2469 33.6754 43.2205 33.6686 43.2073 33.6623C43.1938 33.6561 43.1715 33.6405 43.1731 33.6061C43.1823 33.4131 43.1876 33.2139 43.1889 32.9981C43.1896 32.8896 43.135 32.7803 43.0365 32.7351C42.8743 32.6606 42.7028 32.738 42.6496 32.895C42.2071 34.205 41.0044 37.2512 39.3956 37.2512C38.2326 37.2512 37.9618 36.6725 37.7003 36.1129C37.4891 35.6613 37.2706 35.1942 36.5933 35.1942C35.8166 35.1942 35.5515 35.7358 35.2953 36.2597C35.0185 36.8256 34.7569 37.3605 33.8547 37.3605C33.8425 37.3605 33.83 37.3603 33.8176 37.3602C32.2967 37.3361 31.0145 34.1534 30.5338 32.7861C30.4924 32.6686 30.3877 32.5957 30.2686 32.5957C30.2505 32.5957 30.232 32.5974 30.2136 32.6008C30.0727 32.627 29.9773 32.7454 29.9815 32.8885C29.984 32.9726 29.9877 33.0618 29.9931 33.1559C29.9966 33.2198 29.953 33.2482 29.9339 33.2577C29.9153 33.2669 29.8666 33.2839 29.819 33.2425C29.1573 32.6661 28.2581 31.7556 27.735 30.6993C27.735 30.6993 27.7349 30.6991 27.7349 30.6991C26.9133 28.7581 26.3854 26.5779 26.1659 24.2188C25.9424 21.8189 26.0904 19.7629 26.1983 18.751C26.2218 18.5318 26.2497 18.3097 26.2812 18.0911C26.3139 17.8628 26.2929 17.6272 26.2204 17.4093C26.1893 17.3156 26.1536 17.2059 26.1176 17.091C25.7223 15.8322 24.4963 11.5455 25.3089 9.23658ZM44.2561 40.1209L41.9959 42.9689C41.8207 43.1896 41.4841 43.1721 41.3276 42.9377C40.5525 41.7775 39.5032 40.7659 38.2456 39.8671C38.1084 39.7691 38.1639 39.5568 38.3307 39.5322C39.8077 39.3142 41.1043 38.566 41.8481 37.6496C41.8483 37.6493 41.8486 37.6491 41.849 37.649C42.4386 37.4359 43.0986 37.1614 43.7106 36.9019C44.134 36.7223 44.6017 37.0384 44.592 37.4986C44.5824 37.9565 44.4905 39.1118 44.4469 39.6391C44.4324 39.8153 44.366 39.9823 44.2561 40.1209ZM44.4211 42.2268C44.3683 43.1791 44.2861 44.3556 44.174 45.6873C44.1739 45.6886 44.1728 45.6895 44.1716 45.6894C43.2668 45.6275 42.4237 45.5714 42.2794 45.5643C41.6462 45.5329 41.0094 45.509 40.3719 45.4886C40.3702 45.4885 40.3693 45.4866 40.3701 45.4852C40.5632 45.1564 40.7359 44.8545 40.8543 44.6453C40.938 44.4976 41.1386 44.4711 41.2587 44.5909L41.2685 44.6008C41.5869 44.9193 42.115 44.8753 42.3764 44.5085L44.0851 42.1103C44.1928 41.9591 44.4313 42.0415 44.4211 42.2268ZM32.0019 43.1994C31.8631 43.3997 31.5721 43.4137 31.411 43.2309L29.0335 40.5337C28.7825 40.249 28.6292 39.8904 28.5966 39.5121C28.5293 38.7318 28.4751 37.9882 28.4377 37.3013C28.4187 36.9546 28.7925 36.7267 29.0917 36.9026C29.9001 37.3777 30.9967 37.909 32.2668 38.246C32.2671 38.2461 32.2673 38.2462 32.2676 38.2464C32.8772 38.7496 33.894 39.2135 34.8094 39.4105C35.0327 39.4585 35.1119 39.7355 34.9437 39.8902C33.7984 40.9432 32.8036 42.042 32.0019 43.1994ZM32.9745 45.4937C32.9752 45.4952 32.9742 45.4968 32.9726 45.4968C32.5831 45.5104 32.1941 45.5256 31.8065 45.5432C31.5331 45.5556 30.3277 45.6327 29.2724 45.702C29.2712 45.7021 29.2702 45.7012 29.2701 45.7C29.1755 44.6327 29.0768 43.3143 29.0264 42.6222C29.0159 42.4777 29.1983 42.4068 29.2885 42.5202L30.9684 44.6341C31.3017 45.0533 31.9311 45.0737 32.2908 44.6769L32.2958 44.6714C32.3943 44.5626 32.5721 44.591 32.6319 44.7251L32.9745 45.4937ZM24.6209 45.0569L21.2813 43.9827C20.9246 43.8679 20.7651 43.4508 20.9566 43.1286C22.1721 41.0839 23.77 39.1056 26.0955 37.7118C26.7374 37.3269 27.5582 37.7432 27.6161 38.4898C27.7634 40.3879 28.0231 42.7103 28.3164 44.9968C28.3693 45.4092 28.0639 45.781 27.6494 45.8111C27.6187 45.8133 27.5964 45.815 27.5836 45.8161C26.7125 45.889 25.8398 45.9747 24.9668 46.0687C24.965 46.0689 24.9639 46.067 24.9649 46.0655C25.2087 45.7135 25.0579 45.1974 24.6209 45.0569ZM28.2272 33.8851L28.1904 33.3809C28.1902 33.3787 28.193 33.3776 28.1944 33.3795C28.758 34.1804 29.4384 34.9835 30.2653 35.7679C30.4823 35.9737 30.6693 36.2038 30.8266 36.4517C29.9922 36.0535 29.3372 35.5553 28.8861 35.1774C28.5002 34.854 28.2638 34.3875 28.2272 33.8851ZM33.9171 42.8354C34.5302 42.0026 35.2603 41.2572 36.0941 40.5896C36.4187 40.3298 36.8788 40.3155 37.2202 40.5528C38.1448 41.1958 38.9968 41.8895 39.6609 42.7342C40.0411 43.2176 40.101 43.8806 39.8308 44.4333L39.3299 45.4578C39.3295 45.4586 39.3287 45.4591 39.3279 45.4591C38.4903 45.44 37.653 45.4293 36.8211 45.4293C35.9276 45.4293 35.0276 45.4412 34.1281 45.4631C34.1272 45.4632 34.1263 45.4626 34.1259 45.4617L33.7115 44.3599C33.5196 43.8496 33.5939 43.2744 33.9171 42.8354ZM43.9339 35.583C43.6701 35.6891 43.4072 35.789 43.1449 35.8854C43.138 35.8743 43.1348 35.8693 43.133 35.8665C43.132 35.8648 43.1287 35.8597 43.1199 35.8455C43.531 35.435 44.1909 34.7014 44.9033 33.6205C44.9046 33.6186 44.9076 33.6195 44.9073 33.6218L44.8271 34.3962C44.7721 34.9266 44.4283 35.384 43.9339 35.583ZM25.3816 17.8219C25.3636 17.8814 25.3221 17.9298 25.2647 17.957C25.1973 17.9892 25.1212 17.9858 25.0563 17.9479C24.8113 17.8047 24.5825 17.6459 24.3764 17.4761C24.2834 17.3999 24.1568 17.3971 24.061 17.4695C23.9648 17.5419 23.9324 17.6648 23.9804 17.7754C24.2247 18.3383 24.6035 19.4157 24.396 20.3079C24.3526 20.4938 24.4655 20.6775 24.6527 20.7262C24.6646 20.7292 24.6771 20.7328 24.6897 20.7368C24.9474 20.8169 25.1255 21.0704 25.1229 21.3529C25.1137 22.3383 25.154 23.3255 25.2428 24.2874C25.257 24.4388 25.2717 24.593 25.2875 24.7495C25.2905 24.7779 25.274 24.7917 25.2596 24.7983C25.2453 24.8049 25.2242 24.8086 25.2016 24.7851C24.7353 24.3011 24.4492 23.0994 24.5074 22.7191C24.5268 22.5927 24.4881 22.4637 24.4116 22.3613C22.8483 20.2685 23.0113 17.4518 23.3833 16.1173C23.5035 15.6861 23.6752 15.4456 23.7922 15.3986C23.8378 15.3802 23.8835 15.3717 23.9286 15.3717C24.4041 15.3717 24.8267 16.3063 24.8299 16.3133C24.9713 16.677 25.2891 17.5583 25.3816 17.8219ZM2.90488 44.7338C2.90488 30.9904 11.3678 18.5679 24.0653 13.5092C24.1821 13.4627 24.3124 13.5373 24.3312 13.6616C24.3601 13.8516 24.3935 14.0727 24.4195 14.2468C24.4388 14.3765 24.3252 14.4913 24.1969 14.4647C23.9499 14.4134 23.6986 14.4384 23.447 14.5397C23.0163 14.713 22.686 15.1725 22.4922 15.8686C22.0462 17.4682 21.9628 20.229 23.3257 22.411C23.4745 22.6492 23.5502 22.9258 23.5444 23.2101C23.5305 23.9007 23.9762 24.846 24.5342 25.4266C24.6678 25.5655 24.8209 25.6773 24.9894 25.7589C25.264 25.8917 25.4547 26.1402 25.4994 26.4239C25.7271 27.8679 26.1405 29.7283 27.1637 31.6904C27.1638 31.6906 27.1638 31.6909 27.1639 31.6912L27.3538 34.289C27.4133 35.1028 27.0127 35.8791 26.3204 36.3104C25.0664 37.0917 23.9518 37.9365 22.9772 38.8713C22.977 38.8714 22.9767 38.8715 22.9765 38.8717C19.7925 40.149 9.63447 44.2932 8.21634 45.7311C7.54558 46.4109 7.45072 47.1036 7.63922 47.8136C7.63922 47.8139 7.63922 47.8141 7.63922 47.8144C7.51429 48.4637 6.77253 52.1846 5.50371 55.939C5.39805 56.2517 4.95439 56.2552 4.84362 55.9443C3.58521 52.4103 2.90488 48.6296 2.90488 44.7338ZM8.68825 63.5377C7.74236 62.1389 6.89934 60.669 6.16987 59.1392C5.85897 58.4873 5.82418 57.7349 6.06815 57.055C7.01108 54.4277 7.70117 51.7173 8.10952 49.9296C8.1703 49.6636 8.52297 49.6067 8.66503 49.8396L8.6662 49.8414C9.16236 50.6374 9.70709 51.5114 10.0271 52.5205C10.0758 52.6741 10.3039 52.6343 10.2969 52.4734C10.257 51.5534 10.0721 50.2896 9.43027 49.3647C8.43445 47.9298 8.09613 47.1355 8.85709 46.364C9.8024 45.4056 16.0325 42.7015 20.6113 40.8088C20.8766 40.6992 21.1186 41.0023 20.9557 41.2389C20.407 42.0357 19.9345 42.8918 19.5415 43.8206C19.4154 44.0679 19.5406 44.3692 19.8048 44.4542L23.1434 45.528C23.5405 45.66 23.4831 46.2375 23.0679 46.2894C20.5214 46.6073 17.9784 47.0115 15.4666 47.5017C14.9008 47.6121 14.3758 47.901 14.015 48.351C13.5665 48.9101 13.395 49.6142 13.5352 50.3213L15.5329 64.1964C15.5331 64.1978 15.532 64.199 15.5307 64.199C14.8789 64.2091 14.227 64.2171 13.5751 64.2282C12.4328 64.2476 11.2904 64.269 10.148 64.2918C9.56541 64.3033 9.0148 64.0207 8.68825 63.5377ZM16.4769 64.1849C16.4757 64.1849 16.4748 64.1841 16.4746 64.183L14.4263 50.13C14.3371 49.6832 14.4588 49.2277 14.7598 48.8803C14.9695 48.6381 15.2776 48.467 15.6275 48.3987C22.6257 47.0321 29.7557 46.3391 36.8194 46.3391C43.8839 46.3391 51.0148 47.0322 58.0135 48.3992C58.3623 48.4673 58.6698 48.6383 58.8795 48.8807C59.1801 49.2286 59.3014 49.684 59.2138 50.1208L56.9497 64.179C56.9496 64.1801 56.9486 64.1808 56.9475 64.1808C50.2203 64.0817 43.4932 64.0255 36.7661 64.0296C30.003 64.0283 23.2399 64.0842 16.4769 64.1849ZM58.7256 64.207C58.2796 64.2007 57.943 63.7995 58.0137 63.3588L60.1056 50.3083C60.2542 49.5618 60.0433 48.7995 59.5129 48.2221C59.1636 47.8418 58.6869 47.6022 58.1802 47.5032C55.6624 47.0117 53.1116 46.6062 50.5583 46.2877C50.1494 46.2368 49.7634 46.0716 49.4461 45.8084L49.177 45.5852C48.9101 45.3638 48.9608 44.9403 49.2727 44.7885C49.2727 44.7885 51.9532 43.7489 52.5592 43.0428C52.7663 42.8016 52.6476 42.2613 51.7291 40.9669C51.6769 40.8933 51.6217 40.8173 51.5639 40.7393C51.3619 40.4666 51.6723 40.1097 51.9685 40.2751C56.1507 42.6084 62.4277 45.9874 65.2065 46.8581C65.5332 46.9604 65.6445 47.1313 65.6998 47.251C66.094 48.1047 65.2109 50.1863 64.3566 52.1993C63.6768 53.8018 62.9247 55.5747 62.5488 57.2439C62.4991 57.4647 62.8039 57.5754 62.9044 57.3726C63.5639 56.0418 64.6359 53.847 65.1857 52.5515C65.2995 52.283 65.4114 52.0191 65.5196 51.7599C65.6553 51.4347 66.1283 51.4782 66.2013 51.823L67.1877 56.4827C67.3514 57.2563 67.2695 58.0649 66.9366 58.7821C66.1902 60.3897 65.3193 61.9344 64.3358 63.4022C63.9612 63.9612 63.3247 64.2873 62.6522 64.2744C61.7538 64.2571 60.8554 64.2406 59.957 64.2254C59.5465 64.2186 59.1361 64.2128 58.7256 64.207Z" fill="#262A23"/>
</g>
<defs>
<clipPath id="clip0">
<rect width="269" height="66" fill="white"/>
</clipPath>
</defs>
</svg>
