<svg width="90" height="21" viewBox="0 0 90 21" fill="none" xmlns="http://www.w3.org/2000/svg">
<g clip-path="url(#clip0)">
<path fill-rule="evenodd" clip-rule="evenodd" d="M48.3875 5.08478C48.604 5.29615 50.5522 10.3317 50.756 10.9533C50.9588 11.6194 51.2454 12.2584 51.6091 12.8556C52.284 13.0049 52.3476 12.3459 52.5514 11.8237C53.6592 9.0013 55.34 4.88584 56.1804 2.1132C56.7661 0.770391 56.8171 0.409823 55.7602 0.409823C54.7033 0.409823 54.8179 1.08123 54.3977 1.95156C54.0284 3.60521 52.6023 7.09899 52.0802 8.7029C52.0802 8.91426 52.0802 8.91426 51.8128 8.91426C50.9342 6.52705 49.9155 3.6052 48.9223 1.24286C48.6549 0.782824 48.1838 0.683357 47.8655 1.71533C47.3307 3.35654 46.5921 5.30858 46.0191 6.90005C46.0191 6.90005 45.3315 8.91426 45.2806 9.01373C44.9164 8.44202 44.6498 7.81635 44.4911 7.16116C43.7016 5.25885 43.014 3.20734 42.3391 1.30503C42.1736 0.944458 42.1736 0.733091 41.8043 0.521723C41.4342 0.387793 41.034 0.35344 40.6456 0.422256C39.6014 0.58389 40.2763 1.40449 40.4928 2.01373C41.7661 5.35831 43.1795 9.3743 44.593 12.5572C44.626 12.6361 44.6798 12.7051 44.7489 12.7572C44.818 12.8093 44.8999 12.8427 44.9864 12.854C45.0729 12.8654 45.1609 12.8543 45.2417 12.8218C45.3224 12.7894 45.3929 12.7367 45.4461 12.6691C45.6498 12.2837 48.2347 5.08478 48.3875 5.08478Z" fill="white"/>
<path fill-rule="evenodd" clip-rule="evenodd" d="M0.204201 0.621504C0.151565 0.828627 0.169445 1.04686 0.255135 1.24317C0.471604 2.11351 -0.165069 12.0354 0.000466233 12.4332C0.515884 12.6595 1.09376 12.712 1.64308 12.5824C1.89775 12.3213 1.79588 12.0727 1.79588 11.6624C1.79588 9.90925 1.94868 8.21831 1.94868 6.41546C2.01235 5.74406 2.06328 5.28403 2.06328 4.87372C2.06328 4.46342 2.06328 4.51316 2.16515 4.41369C2.26702 4.31422 3.9351 7.14903 4.10064 7.45987C4.41897 8.06911 5.04291 9.00161 5.46311 9.72275C6.09979 10.8542 6.41812 10.0833 6.57092 9.82221C6.94019 9.36218 9.79249 4.47586 9.99622 4.37639C10.1872 4.57532 10.1872 9.46165 10.1872 9.82221C10.1872 12.4954 9.86889 12.7565 11.6006 12.6446C12.1354 12.6446 12.1864 12.2343 12.1354 11.7743C12.1354 10.9039 12.1354 9.92168 12.1354 9.05134C11.9954 6.8382 11.8935 4.31422 11.8935 2.11351C11.8935 1.85241 11.9954 0.870172 11.9954 0.720971C11.8395 0.549445 11.6283 0.435004 11.3968 0.396571C11.1652 0.358137 10.9272 0.398012 10.722 0.509603C10.3528 0.720971 10.2509 1.18101 9.98349 1.49184C8.91388 3.34442 7.475 5.44566 6.46906 7.19877C6.09979 7.82044 6.09979 7.60907 5.78145 7.19877C5.09384 6.21653 4.2025 4.52559 3.57856 3.54335L2.30522 1.49184C2.12822 1.13533 1.90107 0.804718 1.63035 0.509603C1.27381 0.260935 0.573471 0.45987 0.204201 0.621504Z" fill="white"/>
<path fill-rule="evenodd" clip-rule="evenodd" d="M67.3979 6.37791C67.8486 6.01885 68.3833 5.77419 68.9542 5.66572C69.5252 5.55726 70.1148 5.58836 70.6704 5.75625C72.3513 6.47738 72.5677 8.90189 71.8292 10.0831C71.5146 10.5434 71.0615 10.8971 70.5324 11.0953C70.0033 11.2935 69.4242 11.3264 68.875 11.1896C68.3431 11.0871 67.8395 10.8752 67.3979 10.568V6.37791ZM67.3979 4.62481C67.3185 3.27068 67.3185 1.91322 67.3979 0.559088C67.3979 -0.000414261 67.1942 -0.0998814 66.6594 0.0990529C65.3861 0.621255 65.3861 0.409888 65.5643 1.54133C65.6662 2.11326 65.5643 8.74026 65.5643 9.67276C65.5643 11.5129 65.2969 11.9356 68.0346 12.7065C68.8142 12.8662 69.6187 12.8702 70.3999 12.7185C71.1811 12.5668 71.9228 12.2625 72.5805 11.8237C75.2672 9.67276 74.5287 3.60527 69.6263 4.0653C69.199 4.08789 68.7736 4.13773 68.353 4.21451C68.1874 4.26424 67.5635 4.62481 67.4871 4.62481H67.3979Z" fill="white"/>
<path fill-rule="evenodd" clip-rule="evenodd" d="M30.2681 12.5451C30.4673 11.8967 30.5237 11.2145 30.4337 10.5433C30.3815 9.83967 30.3815 9.13327 30.4337 8.42963C30.5865 8.42963 30.752 8.69073 31.0703 9.00157C31.3887 9.3124 34.0118 11.9856 34.432 12.284C34.5786 12.4172 34.7553 12.5148 34.9478 12.5688C35.1403 12.6228 35.3431 12.6317 35.5398 12.5948C35.909 12.5948 36.4948 12.5948 36.6985 12.3462C36.6985 11.9856 35.96 11.4136 35.6416 11.1028C35.3233 10.792 34.9158 10.3941 34.5466 9.97137C33.7366 9.27538 32.9792 8.52328 32.28 7.72093C32.28 7.60903 35.1705 5.23425 35.7053 4.78665C35.909 4.57528 36.1255 4.52555 36.0746 4.21471C35.4192 4.0173 34.7181 4.0173 34.0627 4.21471C33.808 4.32661 32.0635 5.86835 31.5924 6.27866C31.4396 6.42786 30.5355 7.36036 30.4337 7.31063C30.2809 6.83816 30.4337 0.410093 30.3318 0.049525C30.2299 -0.311043 28.4345 0.260893 28.4854 0.882562C28.5853 1.31936 28.6365 1.7654 28.6382 2.21294V11.1028C28.6382 11.4136 28.5364 12.3462 28.7528 12.4954C29.2483 12.619 29.7653 12.636 30.2681 12.5451Z" fill="white"/>
<path fill-rule="evenodd" clip-rule="evenodd" d="M16.5579 8.32979C17.1436 8.18059 19.1046 8.64062 19.1937 9.15039C19.2446 9.70048 19.2446 10.2539 19.1937 10.804C18.8245 11.2641 16.2905 12.1841 15.4501 10.5429C15.3368 10.3098 15.2781 10.055 15.2781 9.79693C15.2781 9.53888 15.3368 9.28407 15.4501 9.05092C15.5724 8.86136 15.7342 8.69914 15.9252 8.57487C16.1161 8.4506 16.3317 8.36708 16.5579 8.32979ZM19.2447 7.70812C18.7499 7.38805 18.1965 7.1643 17.6148 7.04915C16.8899 6.97077 16.1565 7.02132 15.4501 7.19835C14.8553 7.36469 14.3309 7.71299 13.9539 8.19204C13.577 8.67109 13.3674 9.2556 13.356 9.85962C13.3446 10.4636 13.5319 11.0553 13.8906 11.5476C14.2492 12.0399 14.7601 12.4068 15.3482 12.5944C16.3554 12.9298 17.448 12.9298 18.4552 12.5944C18.6717 12.495 19.0919 12.2339 19.2447 12.1841C19.3975 12.1344 19.4611 12.5447 19.6649 12.6442C19.8686 12.7436 20.8236 12.6442 21.091 12.3955C21.3584 12.1468 21.4094 12.1841 21.2438 11.8236C20.9974 11.3478 20.9085 10.8091 20.9891 10.2818V6.57668C21.0558 6.05205 20.9245 5.52169 20.6199 5.08467C19.6139 3.13263 13.5528 3.9035 14.0367 5.55714C14.5206 7.21078 15.31 4.9852 17.9841 5.29604C19.4229 5.44524 19.2701 6.78805 19.2701 7.70812H19.2447Z" fill="white"/>
<path fill-rule="evenodd" clip-rule="evenodd" d="M81.5714 7.45966H77.2038C77.2623 6.94914 77.5009 6.47441 77.8787 6.11685C78.291 5.76377 78.809 5.5501 79.3557 5.50761C79.6405 5.48465 79.9271 5.51795 80.1984 5.60553C80.4697 5.69312 80.7201 5.83319 80.9347 6.01738C81.1507 6.19094 81.3212 6.41236 81.432 6.66321C81.5427 6.91407 81.5905 7.18712 81.5714 7.45966ZM77.0892 8.79003C77.4075 8.64083 82.1826 8.79003 83.0485 8.79003C83.9143 8.79003 83.5196 6.01738 81.9406 4.88594C81.2956 4.41636 80.5277 4.1345 79.7255 4.07289C78.9234 4.01128 78.1198 4.17243 77.4075 4.53775C76.6952 4.90307 76.1032 5.45766 75.6999 6.13748C75.2966 6.8173 75.0984 7.59463 75.1282 8.37973C75.098 9.14226 75.2797 9.89856 75.6541 10.5684C76.0285 11.2382 76.5816 11.7966 77.2547 12.1843C78.6681 13.1169 82.4627 13.0671 82.9338 11.6248C83.5196 9.77227 82.1444 10.8042 81.6605 11.0032C81.2536 11.1661 80.8247 11.2707 80.3872 11.314C77.5731 11.6248 76.8855 9.20033 77.0892 8.79003Z" fill="white"/>
<path fill-rule="evenodd" clip-rule="evenodd" d="M57.9778 7.46008C58.0225 6.92903 58.2697 6.43372 58.6706 6.07222C59.0715 5.71071 59.5968 5.50936 60.1425 5.50803C61.2376 5.39613 62.5109 6.32864 62.2944 7.46008H57.9778ZM57.7613 8.70342C58.0287 8.70342 62.982 8.70342 63.6697 8.70342C64.3573 8.70342 64.2427 8.29312 64.1917 7.78335C64.1545 7.09299 63.9343 6.4239 63.5527 5.84163C63.171 5.25935 62.641 4.78386 62.0146 4.46173C61.3881 4.1396 60.6867 3.98187 59.9791 4.004C59.2715 4.02613 58.5818 4.22735 57.9778 4.58796C57.2986 4.97977 56.7431 5.54682 56.3725 6.2268C56.0018 6.90677 55.8303 7.67336 55.8768 8.44232C55.8227 9.20139 55.9978 9.95928 56.3803 10.6222C56.7627 11.2852 57.3359 11.8241 58.0287 12.1723C59.8242 13.254 63.3513 12.794 63.6697 11.5631C63.6697 11.2025 63.9243 10.3198 63.3513 10.5311C62.6592 10.9132 61.9057 11.178 61.123 11.3144C60.7057 11.3689 60.2815 11.3419 59.875 11.2352C59.4684 11.1285 59.0876 10.9441 58.7545 10.6928C58.2961 10.3322 57.5576 9.25049 57.7613 8.70342Z" fill="white"/>
<path fill-rule="evenodd" clip-rule="evenodd" d="M86.3605 12.5947C86.6789 12.2839 86.628 12.1347 86.628 11.6747V10.4313C86.628 8.79012 86.3096 6.06721 88.2578 5.6569C88.678 5.55744 88.7799 5.90557 89.3147 5.8061C89.6301 5.52982 89.867 5.17861 90.0023 4.78657C90.0023 4.00326 88.729 3.85406 87.5702 4.36383C87.201 4.52547 86.8954 5.08497 86.628 5.1347C86.628 4.67467 86.7298 4.47573 86.4115 4.06543C86.0033 4.10364 85.6083 4.22658 85.2527 4.426C84.7307 4.67467 84.6288 4.67467 84.7307 5.29634C84.8325 5.91801 84.7307 10.1827 84.7307 11.2022C84.7816 12.7564 84.7816 12.7066 86.3605 12.5947Z" fill="white"/>
<path fill-rule="evenodd" clip-rule="evenodd" d="M24.271 12.545V12.4455C24.4188 11.1827 24.4571 9.90999 24.3856 8.64089C24.3856 7.65865 24.6403 6.06718 25.7481 5.75635C26.6394 5.44551 26.6904 6.26611 27.2761 5.75635C28.6386 4.36381 26.805 3.8043 25.6972 4.26434C24.5893 4.72437 24.7421 5.08494 24.4238 5.18441C24.3982 4.9821 24.3982 4.77748 24.4238 4.57517C24.4238 4.31407 24.3092 4.31407 24.2073 4.16487C23.7991 4.16163 23.3979 4.26924 23.0486 4.47571C22.5265 4.67464 22.361 4.72437 22.5265 5.34604C22.6385 6.29925 22.6726 7.25966 22.6284 8.21816V11.053C22.743 12.5947 22.5265 12.7066 24.271 12.545Z" fill="white"/>
<path fill-rule="evenodd" clip-rule="evenodd" d="M48.0178 14.1987C45.9157 14.4519 43.8488 14.9314 41.8548 15.6285C41.2308 15.8896 40.5814 16.0388 39.9575 16.2999C38.6842 16.76 37.4872 17.1703 36.2266 17.6427C35.8064 17.7919 32.8013 18.6623 32.2792 18.7742C29.7325 19.3834 25.9125 20.1046 23.4804 19.0228C22.3217 18.4633 22.2071 20.204 24.8429 20.8257C26.3843 21.0893 27.9661 21.0214 29.4779 20.6268C30.7512 20.3657 32.2792 19.9056 33.4889 19.545C34.6986 19.1845 36.1247 18.7742 37.4363 18.4136C37.7546 18.3017 38.0093 18.2022 38.3785 18.1028L40.3268 17.5308C40.696 17.4314 40.9634 17.2822 41.2818 17.1703L43.2937 16.7102C43.6629 16.6108 43.9303 16.5113 44.2487 16.3994C46.9147 15.8441 49.6339 15.569 52.3599 15.5788C53.0347 15.5788 54.0407 15.7404 54.7283 15.8399C56.0016 15.9891 55.7215 15.3301 54.8811 14.9074C52.696 14.0899 50.3297 13.8455 48.0178 14.1987Z" fill="#F9CC46"/>
</g>
<defs>
<clipPath id="clip0">
<rect width="90" height="21" fill="white"/>
</clipPath>
</defs>
</svg>
