<svg width="26" height="27" viewBox="0 0 26 27" fill="none" xmlns="http://www.w3.org/2000/svg">
<path d="M21.1768 18.3332C20.6342 18.3353 20.0977 18.447 19.5993 18.6615C19.101 18.8761 18.6512 19.1891 18.2768 19.5819L8.45707 14.668C8.69862 13.9355 8.69862 13.1449 8.45707 12.4124L18.2929 7.40991C18.9974 8.15233 19.9528 8.60629 20.9734 8.68354C21.994 8.76079 23.0068 8.45582 23.815 7.82791C24.6233 7.19999 25.1692 6.29399 25.3467 5.286C25.5241 4.27801 25.3205 3.24004 24.7753 2.37385C24.2301 1.50765 23.3823 0.875101 22.3967 0.599152C21.4111 0.323202 20.3581 0.423565 19.4424 0.880732C18.5267 1.3379 17.8137 2.11921 17.4419 3.07281C17.0702 4.0264 17.0663 5.08415 17.431 6.04047L7.69179 10.9946C7.1658 10.3514 6.45372 9.8865 5.65318 9.6638C4.85263 9.44109 4.0028 9.47143 3.22017 9.75067C2.43755 10.0299 1.76044 10.5444 1.28167 11.2235C0.802899 11.9027 0.545898 12.7133 0.545898 13.5442C0.545898 14.3752 0.802899 15.1858 1.28167 15.8649C1.76044 16.5441 2.43755 17.0585 3.22017 17.3378C4.0028 17.617 4.85263 17.6473 5.65318 17.4246C6.45372 17.2019 7.1658 16.7371 7.69179 16.0938L17.4068 20.9835C17.2426 21.4243 17.1581 21.8907 17.1571 22.361C17.1571 23.1576 17.3933 23.9364 17.8359 24.5987C18.2784 25.2611 18.9075 25.7773 19.6435 26.0822C20.3795 26.3871 21.1893 26.4668 21.9706 26.3114C22.7519 26.156 23.4696 25.7724 24.0329 25.2091C24.5962 24.6458 24.9798 23.9281 25.1352 23.1468C25.2906 22.3655 25.2109 21.5556 24.906 20.8197C24.6012 20.0837 24.0849 19.4546 23.4226 19.012C22.7602 18.5695 21.9815 18.3332 21.1848 18.3332H21.1768Z" fill="#EA3B4A"/>
</svg>
