<svg width="30" height="30" viewBox="0 0 30 30" fill="none" xmlns="http://www.w3.org/2000/svg">
<path d="M15 30C23.2843 30 30 23.2843 30 15C30 6.71573 23.2843 0 15 0C6.71573 0 0 6.71573 0 15C0 23.2843 6.71573 30 15 30Z" fill="white"/>
<path d="M6.86353 14.6748L21.326 9.09852C21.9973 8.85602 22.5835 9.26227 22.366 10.2773L22.3673 10.276L19.9048 21.8773C19.7223 22.6998 19.2335 22.8998 18.5498 22.5123L14.7998 19.7485L12.991 21.491C12.791 21.691 12.6223 21.8598 12.2348 21.8598L12.501 18.0435L19.451 11.7648C19.7535 11.4985 19.3835 11.3485 18.9848 11.6135L10.396 17.021L6.69353 15.866C5.88978 15.611 5.87228 15.0623 6.86353 14.6748Z" fill="#293F6E"/>
</svg>
