<svg width="298" height="297" viewBox="0 0 298 297" fill="none" xmlns="http://www.w3.org/2000/svg">
<path opacity="0.1" d="M292.533 105.726C289.127 101.916 284.472 99.4383 279.401 98.7348V98.7243L200.194 87.8205L168.85 13.183C164.274 2.25813 151.677 -2.9007 140.715 1.66028C135.489 3.83481 131.333 7.97506 129.152 13.183L97.8081 87.8205L18.6018 98.7243C6.80097 100.361 -1.43397 111.223 0.208655 122.983C0.914596 128.037 3.40098 132.675 7.22378 136.07L66.9001 189.102L54.6384 272.319C53.3101 280.77 57.2046 289.189 64.5153 293.67C71.7232 298.263 80.9946 298.092 88.0259 293.235L149.001 251.912L209.975 293.277C219.814 299.932 233.204 297.378 239.882 287.573C242.917 283.117 244.16 277.688 243.363 272.362L231.102 189.112L290.779 136.08C299.674 128.181 300.46 114.59 292.533 105.726ZM212.647 177.127C209.977 179.504 208.686 183.059 209.209 186.588L221.981 275.682L155.014 230.308C151.404 227.863 146.661 227.863 143.051 230.308L75.6907 275.406L88.7923 186.546C89.3012 183.031 88.0103 179.495 85.3543 177.127L21.4954 119.767L106.726 108.047C110.458 107.534 113.639 105.094 115.091 101.63L149.128 21.2124C149.166 21.2596 149.195 21.3137 149.213 21.3715L182.899 101.588C184.351 105.051 187.533 107.492 191.264 108.005L276.601 120.245L212.647 177.127Z" fill="#008BCA"/>
</svg>
