<svg width="273" height="280" viewBox="0 0 273 280" fill="none" xmlns="http://www.w3.org/2000/svg">
<path opacity="0.1" d="M227.906 76.7299C231.199 78.468 235.233 77.8437 237.877 75.1343L270.495 41.7111C274.587 37.5179 273.519 30.435 268.362 27.713L253.572 19.9076L245.953 4.75299C243.304 -0.518363 236.395 -1.636 232.293 2.5676L199.675 35.9903C197.043 38.6871 196.414 42.8172 198.119 46.2079L204.13 58.1676L197.794 64.6601C176.069 45.3222 148.595 34.7652 119.536 34.7652C53.4723 34.7652 0 89.5485 0 157.253C0 224.95 53.4648 279.741 119.536 279.741C185.6 279.741 239.072 224.958 239.072 157.253C239.072 127.476 228.77 99.3238 209.898 77.0626L216.234 70.5706L227.906 76.7299ZM236.106 23.4666C241.574 34.3448 239.46 32.1907 250.099 37.8051L230.19 58.2054L220.953 53.3309L216.196 43.8669L236.106 23.4666ZM221.955 157.253C221.955 215.121 176.01 262.201 119.536 262.201C63.0624 262.201 17.1175 215.121 17.1175 157.253C17.1175 99.3852 63.0624 52.3053 119.536 52.3053C144.699 52.3053 167.766 61.6575 185.615 77.1399L164.086 99.1999C117.246 61.3752 47.4341 95.4502 47.4341 157.253C47.4341 197.992 79.7792 231.136 119.536 231.136C179.878 231.136 213.081 159.571 176.19 111.602L197.719 89.5424C212.828 107.833 221.955 131.469 221.955 157.253ZM119.536 213.595C89.2173 213.595 64.5516 188.32 64.5516 157.253C64.5516 111.044 115.936 84.8455 151.874 111.714L128.896 135.259C113.465 128.354 96.1221 139.968 96.1221 157.253C96.1221 170.503 106.605 181.245 119.537 181.245C136.436 181.245 147.723 163.436 141 147.662L163.978 124.117C190.253 161.017 164.559 213.595 119.536 213.595Z" fill="#008BCA"/>
</svg>
