<svg width="50" height="50" viewBox="0 0 50 50" fill="none" xmlns="http://www.w3.org/2000/svg">
<path d="M25 50C38.8071 50 50 38.8071 50 25C50 11.1929 38.8071 0 25 0C11.1929 0 0 11.1929 0 25C0 38.8071 11.1929 50 25 50Z" fill="#4D76A1"/>
<path fill-rule="evenodd" clip-rule="evenodd" d="M24.0561 35.9643H26.0182C26.0182 35.9643 26.611 35.8992 26.9136 35.573C27.1921 35.2735 27.1832 34.7111 27.1832 34.7111C27.1832 34.7111 27.1448 32.0782 28.3668 31.6905C29.5714 31.3086 31.1183 34.2352 32.7578 35.3604C33.9976 36.2121 34.9397 36.0254 34.9397 36.0254L39.3235 35.9643C39.3235 35.9643 41.6168 35.823 40.5295 34.0199C40.4403 33.8724 39.8962 32.6861 37.27 30.2484C34.5212 27.6971 34.8893 28.1097 38.2005 23.6965C40.2171 21.0088 41.0232 19.3679 40.7715 18.6651C40.5312 17.9957 39.0481 18.1727 39.0481 18.1727L34.1121 18.2034C34.1121 18.2034 33.7462 18.1535 33.4748 18.3157C33.2097 18.4748 33.039 18.8456 33.039 18.8456C33.039 18.8456 32.2578 20.9254 31.2159 22.6942C29.0179 26.4265 28.1391 26.6235 27.7799 26.3918C26.9443 25.8516 27.1529 24.2219 27.1529 23.0641C27.1529 19.4472 27.7015 17.9391 26.0847 17.5487C25.5481 17.4191 25.1532 17.3335 23.7811 17.3197C22.0199 17.3014 20.5292 17.325 19.6851 17.7386C19.1236 18.0136 18.6904 18.6263 18.9543 18.6615C19.2805 18.7052 20.0194 18.8607 20.4111 19.3942C20.9169 20.0823 20.8991 21.6278 20.8991 21.6278C20.8991 21.6278 21.1896 25.8855 20.2204 26.4145C19.555 26.7772 18.6423 26.0366 16.6828 22.6505C15.6788 20.9161 14.9207 18.9989 14.9207 18.9989C14.9207 18.9989 14.7745 18.6406 14.5138 18.449C14.1974 18.2168 13.7553 18.1428 13.7553 18.1428L9.06488 18.1735C9.06488 18.1735 8.36076 18.1932 8.10228 18.4993C7.87233 18.7716 8.08401 19.3349 8.08401 19.3349C8.08401 19.3349 11.7562 27.9261 15.9141 32.2556C19.7266 36.225 24.0561 35.9643 24.0561 35.9643Z" fill="white"/>
</svg>
