<svg width="30" height="30" viewBox="0 0 30 30" fill="none" xmlns="http://www.w3.org/2000/svg">
<path fill-rule="evenodd" clip-rule="evenodd" d="M14.7852 21.3619H15.9807C15.9807 21.3619 16.3418 21.3223 16.5262 21.1235C16.6959 20.9411 16.6904 20.5984 16.6904 20.5984C16.6904 20.5984 16.6671 18.9943 17.4116 18.7581C18.1455 18.5254 19.0879 20.3084 20.0868 20.994C20.8421 21.5129 21.4161 21.3991 21.4161 21.3991L24.087 21.3619C24.087 21.3619 25.4842 21.2758 24.8217 20.1773C24.7674 20.0874 24.4359 19.3647 22.8359 17.8795C21.1612 16.3251 21.3854 16.5765 23.4028 13.8877C24.6314 12.2502 25.1226 11.2505 24.9692 10.8223C24.8228 10.4145 23.9192 10.5223 23.9192 10.5223L20.9119 10.541C20.9119 10.541 20.689 10.5106 20.5237 10.6094C20.3621 10.7064 20.2581 10.9323 20.2581 10.9323C20.2581 10.9323 19.7822 12.1994 19.1474 13.2771C17.8082 15.551 17.2728 15.671 17.054 15.5298C16.5449 15.2007 16.672 14.2078 16.672 13.5024C16.672 11.2988 17.0062 10.38 16.0211 10.1422C15.6942 10.0631 15.4537 10.011 14.6177 10.0026C13.5447 9.99146 12.6365 10.0059 12.1222 10.2578C11.7801 10.4253 11.5162 10.7987 11.6769 10.8201C11.8757 10.8467 12.3258 10.9415 12.5645 11.2665C12.8727 11.6857 12.8618 12.6273 12.8618 12.6273C12.8618 12.6273 13.0388 15.2214 12.4483 15.5436C12.0429 15.7647 11.4869 15.3134 10.293 13.2504C9.6813 12.1937 9.21945 11.0257 9.21945 11.0257C9.21945 11.0257 9.1304 10.8074 8.97156 10.6906C8.77879 10.5491 8.50944 10.5041 8.50944 10.5041L5.65176 10.5228C5.65176 10.5228 5.22277 10.5348 5.06529 10.7213C4.92519 10.8872 5.05416 11.2304 5.05416 11.2304C5.05416 11.2304 7.29143 16.4646 9.82466 19.1024C12.1475 21.5208 14.7852 21.3619 14.7852 21.3619Z" fill="#EA3B4A"/>
</svg>
