<svg width="30" height="30" viewBox="0 0 30 30" fill="none" xmlns="http://www.w3.org/2000/svg">
<path d="M15 30C23.2843 30 30 23.2843 30 15C30 6.71573 23.2843 0 15 0C6.71573 0 0 6.71573 0 15C0 23.2843 6.71573 30 15 30Z" fill="white"/>
<path fill-rule="evenodd" clip-rule="evenodd" d="M14.4335 21.579H15.6108C15.6108 21.579 15.9664 21.5399 16.148 21.3442C16.3151 21.1645 16.3098 20.8271 16.3098 20.8271C16.3098 20.8271 16.2868 19.2473 17.02 19.0147C17.7427 18.7856 18.6708 20.5415 19.6545 21.2167C20.3984 21.7276 20.9637 21.6156 20.9637 21.6156L23.594 21.579C23.594 21.579 24.97 21.4942 24.3175 20.4123C24.2641 20.3238 23.9376 19.6121 22.3619 18.1494C20.7126 16.6186 20.9335 16.8662 22.9202 14.2183C24.1301 12.6057 24.6138 11.6211 24.4627 11.1994C24.3186 10.7978 23.4287 10.904 23.4287 10.904L20.4671 10.9224C20.4671 10.9224 20.2476 10.8925 20.0848 10.9898C19.9257 11.0853 19.8233 11.3077 19.8233 11.3077C19.8233 11.3077 19.3545 12.5556 18.7294 13.6169C17.4106 15.8563 16.8833 15.9745 16.6678 15.8354C16.1664 15.5114 16.2916 14.5335 16.2916 13.8389C16.2916 11.6687 16.6207 10.7639 15.6507 10.5296C15.3287 10.4518 15.0918 10.4005 14.2685 10.3922C13.2118 10.3812 12.3174 10.3954 11.8109 10.6435C11.474 10.8085 11.2141 11.1762 11.3724 11.1973C11.5682 11.2235 12.0115 11.3168 12.2465 11.6369C12.55 12.0497 12.5393 12.9771 12.5393 12.9771C12.5393 12.9771 12.7137 15.5317 12.1321 15.8491C11.7329 16.0667 11.1853 15.6223 10.0095 13.5907C9.40712 12.55 8.95229 11.3997 8.95229 11.3997C8.95229 11.3997 8.86459 11.1847 8.70816 11.0698C8.51832 10.9305 8.25307 10.8861 8.25307 10.8861L5.4388 10.9045C5.4388 10.9045 5.01632 10.9163 4.86123 11.1C4.72326 11.2634 4.85027 11.6013 4.85027 11.6013C4.85027 11.6013 7.05356 16.7561 9.5483 19.3538C11.8358 21.7354 14.4335 21.579 14.4335 21.579Z" fill="#293F6E"/>
</svg>
