<svg width="30" height="30" viewBox="0 0 30 30" fill="none" xmlns="http://www.w3.org/2000/svg">
<path d="M4.9873 25.0517L6.40087 19.8898C5.52893 18.379 5.07029 16.6652 5.07093 14.9095C5.07317 9.41683 9.54294 4.94818 15.0354 4.94818C17.7007 4.9493 20.2025 5.98673 22.0838 7.86966C23.965 9.7526 25.0007 12.2555 24.9997 14.9175C24.9973 20.4099 20.5269 24.8792 15.0354 24.8792C15.0351 24.8792 15.0356 24.8792 15.0354 24.8792H15.0311C13.3634 24.8786 11.725 24.4603 10.2696 23.6665L4.9873 25.0517ZM10.5142 21.8632L10.8168 22.0425C12.0881 22.797 13.5457 23.196 15.0322 23.1968H15.0354C19.6 23.1968 23.3153 19.4822 23.3172 14.9168C23.318 12.7044 22.4574 10.6239 20.8937 9.05895C19.3299 7.49401 17.2507 6.63167 15.0384 6.63071C10.4702 6.63071 6.75506 10.3448 6.7533 14.9101C6.75266 16.4746 7.19031 17.998 8.01948 19.3164L8.21652 19.6298L7.37966 22.685L10.5142 21.8632Z" fill="#008BCA"/>
<path fill-rule="evenodd" clip-rule="evenodd" d="M12.5446 10.745C12.3581 10.3304 12.1617 10.3221 11.9842 10.3149C11.8391 10.3086 11.673 10.309 11.5072 10.309C11.3412 10.309 11.0714 10.3714 10.8433 10.6205C10.615 10.8696 9.97168 11.472 9.97168 12.697C9.97168 13.9222 10.864 15.1059 10.9884 15.2721C11.1129 15.4383 12.7109 18.0325 15.2415 19.0305C17.3447 19.86 17.7726 19.695 18.2291 19.6535C18.6857 19.612 19.7021 19.0511 19.9096 18.4698C20.1172 17.8884 20.1172 17.3902 20.0549 17.286C19.9925 17.1823 19.8266 17.12 19.5776 16.9955C19.3287 16.871 18.1046 16.2685 17.8764 16.1856C17.6481 16.1024 17.4821 16.0611 17.3162 16.3104C17.15 16.5593 16.6733 17.12 16.528 17.286C16.3827 17.4524 16.2374 17.4732 15.9885 17.3486C15.7395 17.2238 14.9376 16.9611 13.9863 16.1128C13.2462 15.453 12.7464 14.6379 12.6011 14.3887C12.456 14.1397 12.5987 14.0167 12.7105 13.8807C12.9119 13.6357 13.2498 13.1954 13.3327 13.0294C13.4157 12.8631 13.3742 12.7178 13.3121 12.5932C13.2498 12.4687 12.7658 11.2375 12.5446 10.745V10.745Z" fill="#008BCA"/>
</svg>
