<svg width="360" height="360" viewBox="0 0 360 360" fill="none" xmlns="http://www.w3.org/2000/svg">
<path d="M107.979 111.111H88.0983L142.298 264.32L172.64 177.611L149.115 111.111H128.14V96.5119H221.026V111.111H199.275L253.473 264.32L272.955 208.644C298.512 137.314 252.009 115.094 252.009 99.1752C252.009 83.2561 264.914 70.3518 280.832 70.3518C281.693 70.3518 282.53 70.3984 283.349 70.4748C256.377 45.0128 220.007 29.3984 179.988 29.3984C127.696 29.3984 81.6345 56.0531 54.6326 96.5119H107.977V111.111H107.979Z" fill="#008BCA"/>
<path d="M29.3821 180.002C29.3821 237.663 61.7912 287.748 109.382 313.056L41.4147 120.928C33.6723 139.066 29.3821 159.033 29.3821 180.002Z" fill="#008BCA"/>
<path d="M311.099 105.785C313.253 118.47 312.601 132.727 309.295 147.039H309.894L307.617 153.547C306.267 158.245 304.568 163.052 302.638 167.774L250.815 312.958C298.306 287.619 330.632 237.588 330.632 180C330.632 153.015 323.528 127.691 311.099 105.785Z" fill="#008BCA"/>
<path d="M133.522 323.301C148.154 328.041 163.761 330.612 179.972 330.612C195.435 330.612 210.351 328.278 224.393 323.95L180.338 199.416L133.522 323.301Z" fill="#008BCA"/>
<path d="M307.279 52.7206C273.281 18.7232 228.079 0 179.999 0C131.919 0 86.7178 18.7232 52.7205 52.7206C18.7232 86.718 0 131.92 0 180C0 228.08 18.7232 273.282 52.7205 307.279C86.7178 341.277 131.92 360 180 360C228.08 360 273.281 341.277 307.28 307.279C341.277 273.282 360 228.079 360 180C359.999 131.92 341.276 86.718 307.279 52.7206ZM179.999 347.302C87.7488 347.302 12.6976 272.251 12.6976 180C12.6976 87.7498 87.7488 12.6977 179.999 12.6977C272.25 12.6977 347.301 87.7498 347.301 180C347.301 272.251 272.25 347.302 179.999 347.302Z" fill="#008BCA"/>
</svg>
