<svg width="290" height="290" viewBox="0 0 290 290" fill="none" xmlns="http://www.w3.org/2000/svg">
<path d="M86.9774 89.5019H70.9627L114.623 212.92L139.066 143.072L120.115 89.5019H103.218V77.7418H178.043V89.5019H160.521L204.181 212.92L219.875 168.071C240.463 110.61 203.002 92.7111 203.002 79.8873C203.002 67.0636 213.397 56.6684 226.22 56.6684C226.914 56.6684 227.588 56.706 228.248 56.7675C206.52 36.2564 177.223 23.6782 144.985 23.6782C102.861 23.6782 65.7557 45.15 44.0042 77.7418H86.9761V89.5019H86.9774Z" fill="white"/>
<path d="M23.6719 145.003C23.6719 191.452 49.7792 231.798 88.1163 252.185L33.3648 97.415C27.1279 112.027 23.6719 128.111 23.6719 145.003Z" fill="white"/>
<path d="M250.605 85.2183C252.34 95.4366 251.815 106.921 249.152 118.451H249.634L247.8 123.693C246.713 127.478 245.344 131.35 243.789 135.154L202.043 252.108C240.3 231.696 266.34 191.393 266.34 145.003C266.34 123.265 260.618 102.865 250.605 85.2183Z" fill="white"/>
<path d="M107.566 260.436C119.353 264.254 131.925 266.325 144.984 266.325C157.44 266.325 169.456 264.445 180.768 260.958L145.279 160.639L107.566 260.436Z" fill="white"/>
<path d="M247.53 42.4694C220.143 15.0826 183.73 0 144.999 0C106.268 0 69.856 15.0826 42.4693 42.4694C15.0826 69.8562 0 106.269 0 145C0 183.731 15.0826 220.144 42.4693 247.531C69.856 274.917 106.269 290 145 290C183.731 290 220.143 274.917 247.531 247.531C274.917 220.144 290 183.731 290 145C289.999 106.269 274.917 69.8562 247.53 42.4694ZM144.999 279.771C70.6865 279.771 10.2286 219.313 10.2286 145C10.2286 70.6873 70.6865 10.2287 144.999 10.2287C219.312 10.2287 279.77 70.6873 279.77 145C279.77 219.313 219.313 279.771 144.999 279.771Z" fill="white"/>
</svg>
