<svg width="30" height="30" viewBox="0 0 30 30" fill="none" xmlns="http://www.w3.org/2000/svg">
<g clip-path="url(#clip0)">
<path d="M29.3819 7.79796C29.0361 6.51279 28.0228 5.49977 26.7379 5.1537C24.3902 4.51123 14.9997 4.51123 14.9997 4.51123C14.9997 4.51123 5.60941 4.51123 3.26178 5.12921C2.00156 5.47505 0.963588 6.51302 0.61775 7.79796C0 10.1454 0 15.0137 0 15.0137C0 15.0137 0 19.9064 0.61775 22.2294C0.963817 23.5143 1.97684 24.5275 3.26201 24.8736C5.63413 25.5161 14.9999 25.5161 14.9999 25.5161C14.9999 25.5161 24.3902 25.5161 26.7379 24.8981C28.023 24.5523 29.0361 23.539 29.3821 22.2541C29.9999 19.9064 29.9999 15.0384 29.9999 15.0384C29.9999 15.0384 30.0246 10.1454 29.3819 7.79796Z" fill="white"/>
<path d="M12.0117 19.5121L19.8205 15.0146L12.0117 10.5171V19.5121Z" fill="#293F6E"/>
</g>
<defs>
<clipPath id="clip0">
<rect width="30" height="30" fill="white"/>
</clipPath>
</defs>
</svg>
