<svg width="32" height="32" viewBox="0 0 32 32" fill="none" xmlns="http://www.w3.org/2000/svg">
<path d="M4.79993 15.9999C4.79993 16.8836 5.51627 17.5999 6.39993 17.5999H25.5999C26.4836 17.5999 27.1999 16.8836 27.1999 15.9999C27.1999 15.1162 26.4836 14.3999 25.5999 14.3999H6.39993C5.51627 14.3999 4.79993 15.1162 4.79993 15.9999ZM4.79993 23.9999C4.79993 24.8836 5.51627 25.5999 6.39993 25.5999H25.5999C26.4836 25.5999 27.1999 24.8836 27.1999 23.9999C27.1999 23.1162 26.4836 22.3999 25.5999 22.3999H6.39993C5.51627 22.3999 4.79993 23.1162 4.79993 23.9999ZM6.39993 6.3999C5.51627 6.3999 4.79993 7.11625 4.79993 7.9999C4.79993 8.88356 5.51627 9.5999 6.39993 9.5999H25.5999C26.4836 9.5999 27.1999 8.88356 27.1999 7.9999C27.1999 7.11625 26.4836 6.3999 25.5999 6.3999H6.39993Z" fill="#008BCA"/>
</svg>
